<mxfile host="app.diagrams.net" agent="Mozilla/5.0 (Windows NT 10.0; Win64; x64) AppleWebKit/537.36 (KHTML, like Gecko) Chrome/134.0.0.0 Safari/537.36" version="26.1.2">
  <diagram name="第 1 页" id="ChaZ6WIQ9XL5xSF02pTi">
    <mxGraphModel dx="1050" dy="522" grid="1" gridSize="10" guides="1" tooltips="1" connect="1" arrows="1" fold="1" page="1" pageScale="1" pageWidth="827" pageHeight="1169" math="0" shadow="0">
      <root>
        <mxCell id="0" />
        <mxCell id="1" parent="0" />
        <mxCell id="4TD4iii-zDle8eSRVsVg-2" value="" style="shape=image;verticalLabelPosition=bottom;labelBackgroundColor=default;verticalAlign=top;aspect=fixed;imageAspect=0;image=data:image/png,iVBORw0KGgoAAAANSUhEUgAAAxUAAAGdCAYAAABkYV6WAAAABWZkRUNSJJPjAOWrYpkAAOXZSURBVHgB5cRjtCVn2oDh+3mravPY57RtxLYzM0kGydi2bdu2EYxi22bbPH2szap6n2/Vj7PWXr06mWimZ773x3WxcOnB6jKXucxlLnOZy1zmMpe5zGX7mwFwmctc5jKXucxlLnOZy1zmsv3NALjMZS5zmctc5jKXucxlLnPZ/mYAXOYyl7nMZS5zmctc5jKXuWx/MwAuc5nLXOYyl7nMZS5zmctctr8ZAJe5zGUuc5nLXOYyl7nMZS7b3wyAy1zmMpe5zGUuc5nLXOYyl+1vBsBlLnOZy1zmMpe5zGUuc5nL9jcD4DKXucxlLnOZy1zmMpe5zGX7mwFwmctc5jKXucxlLnOZy1zmsv3NALjMZS5zmctc5jKXucxlLnPZ/mYAXOYyl7nMZS5zmcv2JRNAPq24zGUuc9mklA8A/w4GwGUuc5nLXOYyl7nMZS5zmcv2NwPgMpe5zGUuc5nLXOYyl7nMZfubAXCZy1zmMpe5zGUu+1eOeN8RvPqGV+Myl7nMJQvOWgDAv5sBcJnLXOYyl7nMZS57MtL1aVzmMpe5BOA/wQC4zGUuc5nLXOYyl7nMZS5z2f5mAFzmMpe5zGUuc5nLXOYyl7lsfzMALnOZy1zmMpe5zGUuc5nLXLa/GQCXucxlLnOZy1zmMpe5zGUu298MgMtc5jKXucxlLnOZy1zmMpftbwbAZS5zmctc5jKXucxlLnOZy/Y3A+Ayl7nMZS5zmctc5jKXucxl+5sBcJnLXOYyl7nMZS5zmctc5rL9zQC4zGUuc5nLXOYyl7nMZS5z2f5mAFzmMpe5zGUuc5nLXOYyl7lsfzMALnOZy1zmMpe5zGUuc5nLXLa/GQCXucxlLnOZy1zmMpe5zGUu298MgMtc5jKXucxlLnOZy1zmMpftbwbAZS5zmctc5jKXucxlLnOZy/Y3A+Ayl7nMZS5zmctc5rL/BImFurumkNrRAMCThYKp+AA8Vald9dTfPg1/OAPAMyGhof7uKeQe7UCqHgDPBlP2qb9jKrnH2pGqB4DLXGEAXOYyl7nMZS5zmctc9p/gj2QJhjOkd9cjVQ+ASZl1LdTfPo19abhlBo3XzSKzoRmAScFQFlPyAXg8morxJgL84SwAz4QGluLCflK762i4bRqm7APwVHjFAFPyAZhkMxGlBYOkdjaQW9sGwN6k6mEKAQAu+//EALjMZS5zmctc5jKXuew/IejLoYGluKgfTcWYig8KAOW5QxQO6KW0pA9/LE3UXmD8yO0kynOG0HRE1FEEYJKKUn/3FNJbGgHYFw1i1LdErUUAnqm4oUp16hheKcAfygLwVGQ2tlB39xTqb59GreyaNhDF789Sf/s09tZ4y3Qab51OsCcPgMv+vzAALnOZy1zmMpe5zGUu+3eTqkewpw6skHu4k4Zbp9N4/Uxyq9pBAQM2G2ImUiBK1FABICGRQT3FpmIAJkXNZapdE+RWtZNd3wJAMJjFH8kA8O9SnjFKedYwYUcBgL35Q1nq7u9GIgPApKA/T7AnT3neEONHbmdSecEgXjGgtGiA0RO3MH7kdmpNHLwL61uqU8aJWksAuOz/CwPgMpe5zGUuc5nLXOayf7f09gZM1aNw4G7Gj9xO2F5AUzFhRxEEABKp3fXYTETUXAYgYaoeWADYW3nWCDYXEezJg0Kwpw6biQB4PChIZACoZSoe+fu7qL99Gk8k/2AX3nCWurunUH/7NGo13DaN+runkNpZT909PUhkAPDGU+Qf6ER9S9RSAmBSakc9EhnUKAB7CwazVKeOUVjah/oWAJf9f2EAXOYyl7nMZS5zmctc9u9kigHpbY2Up48StpYwZR9/MMfEAb1EzSWwABD05/CHM5TnDINRvPEUWMEUU2jKYtMRALU0FRN2FIjrqwRDOdSzeONp6u+cSv3t08g90omp+OQe6aT+9mkkGm+aSeN1swh68wBMsumY0uIBCgfuZvzI7eytcOBuTNlDMxHjR25nX8aO2s7w6RsYet46xo/YgfoWgLi+ysipmxg9fgs2EwGQMMWAYCBHdcoY1Z5xAPZW7Z7A5kLSWxoBcNn/JwbAZS5zmctc5jKXucxl/y4o5Na2YooBQV+e+tunUXfXFEzFI7e6jaZrZ1P3QA/eWIrsmjbKc4epTB0DIOjL03zNbFLb6wk7CyAAsLfi4n4KK/YQ9OWJGyuEbQUKK/YwfsR2isv2YNMRxWV7GD9yO4nqlDE0iImbKgDUspmIBMDj0cAC8FSYQkDdfd3U3z6NWvV3T0HKPt5ohvrbp7EvDbdOJ/9AF7lV7WQ2tADgsv8vDIDLXOYyl7nMZS5zmcv+XVK767HpGFtXpTxniMKBuwEozR9k4qDd2EyEBjHZjS0UVvRSmTYKQG5tG6YUMH7ITiaO2EFp3iAAj8cUA0whIGwtgoDNhiAgoYeoAPBMSWiQ2BBnqwDszRtPgQLA3mw+pLBiD+NHbGf8yO0kSgsHIBaKK/YwdvQ2xo/cTqJw4G5MxQNg4tCdjB29jeEzN5Aozx0CwGX/XxgAl7nMZS5zmctc5jKX/btErSXKs4ZRAGBvKkrYWmTigF5M1afpulnkHmtHKh5Bfw6biwhbSwA8kdTuOmwmQgMLwCSpeGAFgGdKIoNYIbWzgfrbp1Gr4dbpNNwynfwDXWABYG/qWxAAMMWA/EOdxHVVqp0TACQkMuQe7QCgsLIX9S0A/4op+zTeOJPmK+aS2lUPgMv+FxgAl7nMZS5zmctc5jKX/bvYdAQCYoXMhhby93XjlQIyG1rI39eNqfgAJIL+HDaIKc8ZBkCDGJuJMGUffywNwL5ILAT9ecL2AgB7U99ifQtALayQ3taAVD0A/hVvLI16SuHA3YwfuZ1alWmjIBC1lcAAwBOxmZCJg3YRThknu7aV+tum0XjdLBpvnEEwkKMyewRNxQC47P8zA+Ayl7nMZS5zmctc5rJ/NzVKee4QhYN2E2dDynOHKBy0G5uOAJBY8AdyiBXy93fjD2UwhRT1t0+j4Zbp1N8xlWBPHoC9Bf15JBJMMaD+9qnU3z6NSdl1rZiyT/7BLupvn0YitaMBU/Gpv2sK+Ye6qLu3B4kMAE/EH8tgUzE2FwJQy1Q9EIgbywD8KxiIG6pUpo5RWjhI2F7AWEOcD6lMHSWzroXmq+bQeMNM0luaQAHg8dhMxOjxWxg+YwPVnnEAXPa/wAC4zGUuc5nLXOYyl7lsfwv68wCMHbmD8SO3E7WUsfkq40duZ+SUTQyftpGwswBALVPyya5rxeYiKjNGKBywh/EjtzMpbqwQNZcIOycozxli/MjtjJ6wheEzNjB6whaGnreO8SO3o74F4PFIaPCHMkTtBdRTAGp542lsKsKmYwD+FTORIru+hYZbptN44wy8Qopq+wTlWcMUl/Qzcsomxg/aBUD+0XZyj7UD4LL/bwyAy1zmMpe5zGUuc5nL/t3ECpkNLeTv68YrBWQ2tJC/rxtT8REVgt48xSX92FwIwN780QzBQA6ARLAnT/3dU2i8cSbeeIqwtQgGbDYEICFVD28sTdRaxmYjgsEcAE9HMJhDqh5hRxGAvZmSj6YsNh0BsC/eeIr8g13k7+8itauOqKnC+BE7GDl5M4UDevEmUuTWtWHKPgBhV4HR47cwfuguws4CuUfbCfbkAXDZ/xcGwGUuc5nLXOYyl7nMZf9uapTy3CEKB+0mzoaU5w5ROGg3Nh0R9Nbhj2TJrmmj/vZpJPyhDKaQov72aSTq75pC3b3dpHbVAxB2Fhg/dCeFZX3YVEzcUAGgVqo3j0SGsHOCqLmMN5rGm0gB8FSgkN7SRNRcJmwtAlBLQgOhQdMxCADsLbOpmdwjHZhigCkHBAN5MutbqLt7CvW3TyNhCimkasg/0E397dNI1N8xjcyGFnKPdZDZ3Ezdg10Ee/IAuOz/AwPgMpe5zGUuc5nLXOayfycJDWIFTccA7C3smmD8kJ2MH76d8SO3k4hayth8lfEjt5MYPnUjw6dvpNozDkAtQcAoAJNQSO1sIGopETVUsLkQDWIym5sAeCrSOxrwigGl+QMA7E2qHibysJkIgH0pzxymcNBuxo/cTq3xI7ZjsyGm4qGZiKi+is1XmTh4F+NHbmfS6PFbGHreOoZP20jYWQDAZf8fGACXucxlLnOZy1zmMpf9O5ligHpKXFcFYG8qis2HYADgqfBKPsQCQK3Mtia8YkBp7iAAicqMUYLeOtI7GgB4MkwxIL2xmfLMEeKGKgB780oBEhnifBWAfcGATccATMJC/sEu/OEMhQN7Uc9CYIlaS9Td04M/mgHAZf+fGQCXucxlLnOZy1zmMpf9O/ljGWyuis1EAIgVTMUH4JnyxtNgwUykAEj4Q1nSG5opLRgkbqgCkAjbiyRyq9oJ+nMAPBGJDPmHO4nai5RnDQOwL95YGoA4XwXgyTBln/q7p2KKAeNH7iBqLAOQqEwdozpjlPq7ppB/qAtT9gF4Iqbs03jjTJqvmEtqVz0ALvtfYABc5jKXucxlLnOZy1z274KCN5qmOnUcgISKosYC8EzF9VUQAEj4wxnyj3RQnjdIZeoYALVKCwewQUzdPVPIrm4DCwB7k6pH3b09xA0Viov7QQDAlALq7u8mu7YVbyyFKfukdtWjviWuqwLwRFDIbG6m/s6phJ0Fxo/cjs1EANSqTB1j/JCd+CNpmq6bReMNM8k92k6qtw6vGADgsv8PDIDLXOYyl7nMZS5zmcv+XYK+PJqNqHZOAGDTEeNHbwcgf383puID8HSV5g0yevxWqt3jZLY2kV3bRmH5HirTxwDYm81EjB+2E5sNyW5oofnqueRWtQEwyR/OUHdvD5WpYxQX94MAQMJmQyYO2A0GGm6dTtM1s/GHM4SdE9h8CMC+oJDaXUfD7dMwJZ+xI7dTnjUMAgCTJDYAJKLmMqPHbqWwfA9ihczmZrJr2zClAIBaNhMxevwWhs/YQLVnHACX/S8wAC5zmctc5jKXucxlLvt3kFjwiimKCwZAAAAB9S2VmaNErUVsrkrUXAaglg1i4qYKWAB4IupZcqvaUVHGD9tB1FwG4PHYXMj4ETuodk8wcdAuiosHAEhktjaR2lXPxMG7qE4dA2BvCJTmDVKZOYLNRhQXDVBY0gfAvnjjKfIPdwIwdsR2iov70VQMwCSJBfWVsLEEwCQEKtPGGDlpMyMnb2L8sB2ErUUAXPb/gQFwmctc5jKXucxlLnPZv4N6SnnWMOpbAPZWWjDI2NHbsbkQgFrFZX0UlvaBAYAnoqmY4tJ+KtNHQQDgX7GZiImDdxG2FwGYVJ4xQnFJP5qKAXgixcUDjJy8ifLcITAAsC9xfZXCij1UuyfAAMDe1FPGD99Bef4QAPtisxE2EwHgsv8vDIDLXOYyl7nMZS5zmctc5jKX7W8GwGUuc5nLXOYyl7nMZS5zmcv2NwPgMpe5zGUuc5nLXOYyl7nMZfubAXCZy1zmMpe5zGUuc5nLXOay/c0AuMxlLnOZy1zmMpe5zGUuc9n+ZgBc5jKXucxlLnOZy1zmMpe5bH8zAC5zmctc5jKXucxlLnOZy1y2vxkAl7nMZS5zmctc5jKXucxlLtvfDIDLXOYyl7nMZS5zmctc5jKX7W8GwGUuc5nLni7fT+Eyl+0vAC5zmctc5rL/DwyAy1zmMpc9XbPmLeGwY87AZS77T5s5dzEALnOZy1zmsv8PDIDLXOYylz0TURzSu3MzLnPZf4q1MQAuc5nLXPbfBgsSGQBc9lQYAJe5zGUue6Z6d23BZS77TwFwmctckN7eQO6xdkzZB6CWP5Kh/s4p+MMZAFy2v3mFFI03zaDhlunU3z6NJ6vh5hk0Xj+TYDALgEsMgMtc5jKXucxlLnOZy56O1O566u+agj+aAWCSxALAE5GqR3pbIygAPB5T9kntqseUfABM2cebSAHgD2Xxh7P4QzlQAHDZM5XZ1Ezu0Q4A9sWbSJFd3woWAGppYFFRwq4Jxo/cTiJqL2DKHoUDdzN+5HYKB+7GlD2i9gLjR24nUZ4zhAk9pOID4BID4DKXucxlLnOZy1zmsqej2j1O1Fih/o6ppHc0AJCou3MqjTfNoP72aTyehtunkXu4g+z6VgASpuKRv7+L+tunMSm1owGJDNlV7dTfPo3Gm2dQf/s0gv4c/kiGuK5KZeYwCAAk/KEMEhkAXFYru76F+tunUn/7NPal4bZpZNe1kt7eQO7RdhrumEb97dOoVXdPD5kNzaT21APwbFGj2HwVAJcYAJe5zGUuc5nLXOay/0WmEFB3dw+m7APwn1aePYzNRKS3NgKQwLPE9VXGj9xOorSkD6/kE3YWGD9yO4nqlDFsLqQyfRSAhE3HlBYPUDhwN+NHbidRnTqGTUcUDtrN+JHbGTlpEyOnbiSur+KNpJHQUHfXVOpvn0ai4eYZ1N8xjbp7epDIILHQcPMMWi6Zz+Opv3MKAP+fleYMUVixh/EjtjN+5HbEQtReQDMRibGjtjN8+gaGz9hAcUk/E8t7GT98O+NHbmdSdeoYNh0RNZcAcNmzwQC4zGUuc5nLXOYyl/2v8IoBdXf30HDLdJpunIk3kQJgf9BUTHnmCFFLCYCEpiwAtVSUqK2AqfhIZADYF5uJyKxroeGW6dTfPo3UjgZMxSd/XzcNt06n6drZpHc0EPTlkMhQOKCX8SO3k9BcCMDI6RsYP2IH6luk7CORUJo/yNBz1lFaOIAGlvEjdjD0nHWU5g4hVQ8JDQD/X2HAZkMAHo9EBhQQsPkQDAA8GRIaJDakdjRQf/s0EqkdDZiKT/6+bupvn0b+vm5MxSe1o4H626eRyGxoQWKDlH0AXGIAXOYyl7nMZS5zmcv+V1jfErWUiFqL2FQMwP5UmTlCcdEAAJMUJfdIB/W3TyP3SCem4pN7uJPGG2ZSd/cUxBoA9sVEHjYfMn7kdqpTx7DpiMJBuynPGkYDS9xYIdVbT9hRxB/KAiCxYMbS2Loq6ikACW8iRdxQpTR/EAwAJDSIwUB5zjCaspiyD8D/srp7u/FH0wDsS2ZTC003zKL+9mmYQorUjgb8oQyJhtum0XTtLPKPdALwVKFgcyHFxf2MH7mdxOgJWxg+YwOajfDHUlRnjjJ8xgZGT9jC+JHbSZQXDBLXV4gbqgC4xAC4zGUuc5nLXOYyl/2v0FRMee4wxcUDRK0lAPYXFLzxFAC1BKG0cIDCgbspLtuDTUcUl+9h+PQNjB+5HTUWgKeKWPCHsqhnKS0YxB/JYso+QX8er+xT7RkHYJKp+FS7JkAAYG+aigk7CphCAMD/KlMMMKUAgMcjCopSOHA3Nl+lOnWMqKVMori0DzwIW0oAPBWm4pHZ0IIKZDa2UH/7NGr5QxkAUlsbqb99GrXyD3fiDWfIrmsBBQBXGACXucxlLnOZy1zmMpc9Fdn1LdTfPpX626fRePMMEtn1LQDU0sBiMxEAk6Tq4Q9lAXgi/lCG+tunkdrRgKn45O/rJrOhBbGCmQgoLhrAZkPifJXMpmZS2xuIsyFhewGASZXpo1SnjgHweMqzhwm7CgA8Ff5oGlPyAdifTNkn91g7phgA8K8QC6igngIwSVEQBSskAJ4Mm44pLR6gcOBuxg/fzvgR2xk/cjuJ8SO2YzMxlemjjB+5nUmFA3dTmTXM8CkbGX7uegor9oAAgCsMgMtc5jKXucxlLnOZy56K0pwhCiv2MH7Edqo949h0RKV7AoBJZiJF/Z1Tqb99GrlHOjEVn9wjnTTeMp2GO6fiDWUB2BebjSjPGaE6fRSvFIBRwq4CpSX9lOYPUlzUj82FAFR7xkjtqiMYyFGePYx6CsAzIZEh/2AXLZfPo+WS+bRcPo+6B7qQqgeAKfs0Xj+T+tumkdnUTPM1c2i5dB75B7vIbGqm+cq5tFw2n9yqdgAmYSG7uo3mK+fScsl8Wi6bT/2dUzFlH4BJWMitaaPpmtm0XDqPlkvm03zFXPIPdiGRASBhyj6N18+k6ZrZpHrrMFWPhptn0HLJfBJ193cDsDcTeogV4nwVgL2ldtfRdN0sGm6bRv3t05iU2tEAwL7YTEQiu7GF5qvn0HDbNOpvn0bCm0jh9+epv30ak+rvnErdfd3UPdgFgIsMgMtc5jKXucxlLnOZy54KDNh8CAIAahR8C8AkW1elsLSPiUN2Mnb0NobP2MDY0dsYPX4LQ2euJ24pAbAvxUX9xHUVMmtbqbYV0MBiKoa6e7sx4ykQAEiYUoBYA4Ap+6AA8HRJZKi7ewpBf46JA3Yz9Nx1jB+2E28kQ929PUhksJmIwgG94CnBQI7RI7dRXDRAancdQX+O0eO3UJ45TNCbx5R9ACQy1N85jcz2RgrL9zD03HWMHrMFrxiQf7ALFAAS+Ye7SG9pojR/kKEz1zP0vHUUDtpNqi9Pdn0LAAmbiRg9cQtDz1vHxIG7sZmIsWO3MvS8dSQmDtwNwN5MKUCNEjdWANibrauinqW4tI/xI7czqTp1DAwgAPB4UKG4tI/xI7czftR2hk/fwNhxWxk/cjuTSvMG0bSlPHMEABcZAJe5zGUuc5nLXOYyl/07mFhovHkGDbdNo/72aTTcPIPG62aR2l0HwOMJ9uTJrWqnuLSPuLmMopRnj1CZNYo/lMVUfbCQe7SD3GPtTCzvpbikj+z6Vupvn0YwmAPg6chsbMafSFE4cDfV7gkQCFuLFFb04hUCMhubAcAoKkp55gg2H2IzEepZynOGsZkITcUATEpvbcQfS1NYvodqzzgI2FyE9Sym5GOqPgAJU/SJsyHVKeNgAKDaUSDOVfFG0wA8E8Fglqi1iM1EAEjFAxUAnkh51gijx27BpiMAnilFwSgALjIALnOZy1zmMpe5zGUu+3ewKYv6lvLMEcaP3E55zhD4SlRfBWBvKGQ2tJDZ1sT4oTsJOwsAYACB4vwBJg7ZRXprIw23T8fmQ0aP30LYVaDaVaAydQyv5FN/+1Qab5iJP5IB4MmSWAj21BE1lwlbSwBMilrKxE0Vgj11SCwAIKC+BSCBgAYxALVQCHrriOorVDsnAEiob5k4bCfjR+zApiMAEuNH7mDsuK2ob0HBTKTIbGnCVH0kMgA8XSbykKpHaf4QAFFTmWAoR8Mt05HQAPB41LdgAOCJEAu5Rzqpv30ajyezoQWxAoCrDIDLXOYyl7nMZS5zmcueTVI1YBREUQBgkvUs+BaAvaW3NxK1lCgtHCD3SAf1t08j6KtDg5j8fd003DqdxptnkNpVjxol2F1H/Z3TqL99Go23TCezuYm4oUpp4QBjR20naioD8GRJ2cdUPaKGMgB7ixrKmKqHlH0AnixT8TEVD81GIAAwyWYiEgCTUEjtrqPhxhm0XD6Pxlumk9raCKEB4JlQz1JcMID6FoDy7GGGnrOOsWO3ooEF4JnCU4rL9jB+5HYeT3nuEGoUAFcZAJe5zGUuc5nLXOYylz0bUPDGU0hkiPNVAJ6KyvRRopYSUX2F0tJ+Jg7ZydhR2xg7ajvjR25n7JhtFJbvQUJDaUkf40duZ9LISZsZet46xg/dSWneEJqKAXgqxAooADweFMQKAP8OKOQf6qLu/m5sQ5WRkzYzfMYGxo7bis1XAXgmpOqRf7CL+tunUSv3SCcSGwCeKWIh90gn9bdP4/FkNrQgVgBwlQFwmctc5jKXucxlLnPZM4UV8g93EuzJI7FHnA8BECtkNrRQf/s0MhtaECsA/CtxLkQDS9193WTWtSCRAWBfJDKkdteBBYCny2YibBDjFVIA7M0rpLBBjM1EADxZGsSor0jVALA3iQxeMQAgGMqR6s1TnjXCxIG7sZkIgGeLTUcUDtrN+JHbqVVctgf1LABPxB9Nk1vdDsDjwVOKy/YwfuR2Hk957hBqFABXGQCXucxlLnOZy1zmsv9vJBbq75hK8xVzSe9oAODfQVSoe7ALsYKtCwElaipjqh4SC+W5Q4wfuZ3y3CE0sAA8WRIagqEcAJMkNuQe6aT+9mkkGm6dTt193eQf7AILAE+HBpaos4A/nMGbSAEwyZtI4Q9niDoLaGABeLLUU6L2At54Gn8sDUCt7MYW/MEcAFL2QIU4XwVgXyQyJACeSGZ9C6ld9QA8W7ACCgCPh1jIPdJJ/e3TeDyZDS2IFQBcZQBc5jKXuey/zSmnnsERRxyNCAA8XZ2dnbzy1a9l9uw5AOztzOc8j7Of/0JaWloBeDoWLV7Ca173RpYtW44IADxdixYv4SUvewWNjY0A1DrjzOdy3kteRldXFwD/ShD4NDe3APBUpIIULzrvJSxdthyAp+K4407gla9+LXPnzUcEAFzmsmeTKQT4IxlM6OGNpgGo5U2k8EczSGQI+vIAPNskNJhigCoUlvUR9OeJ8yE2F6K+pTxzhLC9CEB1yjhjR2/DZiIAngxNWTQVo74FIKGepbhsD+NHbicxevwWhp67nsKBvWAA4PFgBRSk6gOwt9K8IeJsRN19PQSDOQCCwRx19/UQZyNK84YAwAoAqACACgBYAQAriBWIDADlGaOob8k/0E3QnwMFU/bJP9SJN5yh2j0OgM2F4CmZrU2Ykg8KwWCWurum4BVSAKS2N5De1gjAJFtfBSC1swEspPryBENZwrYiAE+VIGAFgFqmGGDKPgCPB08pLtvD+JHbeTzluUOoUQBcZQBc5jKXuaKzazpHnXAWcxasIJPNA/Df5uGH7ufAgw7i6GOOB+DpmjlrNt3dPSxbsZIg8EkFKTzPAJDwPJ/29g6q1SoAT8fw0CBNjU3MX7CQTDYHwNM1d+58pk+fwUEHHwpArcbGRlpaWiiVygD8K6l0hue/8Fxe87o38rJXvpon61WvfT1z5szl5FNOZdHixQA8WWFYpaO9E9/zUQUAl/0nHHXC2Rx2zJlMm7kA3wsA+P/CH03TfOVcmq6fhSkESNWj/u4pNF8+l9TOegAScV2VqLGMepawtQjAs02qPpqOKS0aQKoe3mia8uwhAOJcSHnuMJqKAfhPSO2qJ7OpGYBapuzTeP1MsutakchQf+cUGm6dBkAt9S0TB+8ibihTf9cUWi6ZT/1dU4gbykwcvAv1Labsk3+gC1P2yT/aQXpnA/lHOzBln/wDXWS2NJHZ2IwpBdTf3YMp+9hcyPgRO4izVervmULLpfNpum4WEnpMHLgb9S0AUXOZiZW9SGRoum4WLZfNI/9gF2H3BMUl/XjjabIbWoiaSwBMihoqlGcNk97aSMtl88k92kFp/iCaigGYZCo++fu6qb99GrVyj3QisQEgQST4w1kAavmjGYL+HMGePADPlvT2RhIArjAALnOZy1wCQlfPTA46/GQWLDmEVDoLwH+LPXv2MDg4wKLFS6ivrwfgqQoCn4WLFjM2NsqN119HGEacdsZzeOvb38XcefMBSFQqZSYmxgF4Jnbv2kmpWATg6cjmcnR2dbFnTy+33HwDAJOCwCeTzbF71y5GR0cA+FcKExOEYZXBgQH+9Pvf8mT94mc/5qtf/gLf+dY3WL1qFQBPVnNLK3EcMzIyBIDL/pN8P2D6rIUccvRpzJi9GGM8AP7XRY0Vhk/fwNDz1lFr+MwNVKeMA5BQTxk/YgfDZ26gMmMUgGdbcWkf44ftIGopkd7WSNheIGopA7C39JYm6m+bRtPVc8isbwGBBEDCVDzy93dRf/s0JvlDGRL1t08jkdnQgoQeuUc6qb99GrUabp1O/sFOcqvbya5tBWCSzUSMnriFoeetY9LY0dsB2JumYiYO6GXozPUMPW8dQ2euZ+KAXjQVA2AzEaMnbmHoeesYPn0DlSljDJ++gaHnrWP0xC2UZ44wfOYGhp63jtETt2AzEQA2EzFx6C6GzlzP0PPWMfSc9UwcvAtNxQBMCjsKjJy4maHnricxctJmKtNHqUwdY/iMDYycsomouQxArfLcYYbP2MDQ89YxcuJmouYyALVsOqJw0G7Gj9xOreKyPahnAYjrqsTNFXKr2mi5ZD61MhubQQCjAGTWtVB/+zQmpXY0QCzkHumk/vZpPJ7MhhYk9Mg90knDzTPIPdRB/pEOMpuaAXCBAXCZy1zmqraOHg46/GRmzVtKOp0B4L/Bjh072L5tK+Pj4wDUSgUpXnTui1m6dBkA+zJl6nSam1q47957GR0dQQSaW5oZGBhg44Z1APw3mTd3Pg31DTxw332EYQTApMbGJvK5HLt27gRgUldXF42NjQA8VdOmT2f6jBkAPFuM8SiWihQKBQBctj+I8Zg6Yx4HHX4yPdPmYIwHgMueLepbosYK/kgGRCnNHwRgXyozRxg/ajuFA3ZjsxGV2SPYdARAwqZjSosHKBy4m/Ejt5MYOXkzifEjt5MYO24rw2euZ+zobYwfuZ1aY0dvY/jMDQw9Zx2lBYMAuGxvCNhMhHoWgFoIxPVVbEMV9ZTxQ3Yy9Nz1DD1vHXsbPnUjYXsRgMrsEQorehk/YjvjR25n9IQtDD9nPWNHb2P8yO08nrHjtjJ85nrGjt7G2LFbGX7ueobOXE959jAALjAALnOZy1xmjKFn6hwOOuJUFiw9mHx9IwD/Loccchgve/mreNkrX83jmT5zJs2trbzsla9mb69/45uZO28+p55+BkuXLgNgbwcccCAjI8M89MD9ADQ1tZDP5dm8aSOqALC3VJBiybLliADAf9KcuXMZHBpg9epHOeroY3jZK1/NpOee9Xyy+TxLl6/gZa98NYlXvPI1vPTlr+IlL3kFza0tADwV06ZO48UveQWHHHYYAP8Jza0tJABc9u8iAEAqnWHW3KUcetTpzJy7hFSQBsBlz5aoqUxpwSAIADyRsL3I6AlbKM8YAaCWzUQkAFz271CaO8T4kTvQwAJQK2qoMH74DqL6CgBPlvoWmw9BAMBlT5UBcJnLXOaySSJCW/sUVh58PHMXHkAqnQHg2Xb//fdwxeWX8uc//JY//f63JNavWcOD99/Hn37/W/b20IMP0NHRwUMPPsCffv9bfvyj7/OVL32eb33jazz66CMA1Ors7GTK1Gls2byJalgFoLOzi0w2y8JFi3nZK19NYvr06bS0tPKyV76axOvf+Gae85zncdrpz0EEAP4Tps+YwfQZM9m0cSNhGHHnHbdxxaWX8Oc//JY//f63rF71KIWJCf7xt4v40+9/S+IPv/8N3/7m1/jpT3/I8OAQAE/V6OgIa1atAuDJOuroY3jZK1/NvkyfPp26ujxnP/+FvOyVr2Zvr3zFa3j1q1/HggULAXDZf4Ln+0yZNocDDz+ZnmlzMMYDwGUuc5nL9jcD4DKXucxl+9LZPZ2DjziVeQtXkss3APBsiWPL8PAQqgCQGB8fp72jHYC9dbS3o7FloG8PAP/KAQceTF1dHcuWr6C7uweA6TNmsHXrFn73m1/yp9//lsS2bdsYGhrkT7//LYkf/+j7fO0rX+TKKy5DFQCeiWwux5nPeR49PVMAeDwrVhxINpvlwIMOZvbsOcSxZXh4CFUA6OjoolCYYGRkCID96Z677uKKyy/hz3/4LX/6/W+pNTY+xq6dO/nD737Dn37/W2r9+Q+/ZWR0hN7eXjZv2gSAy/5TQPB8n1lzl3DIkacxbeYCgiANgMtc5jKX7S8GwGUuc5nLHo+I0NE9nQMOPYFFyw8jm60D4N9hz55eWlvbyWQzAEwSgSlTpzE6NsbQ0CAAT2TKlKlMmTqV0dERRkZH2L17F0Hg09raxiMPP4QqADzblixbzste+WpqveY1r2f5ipWcdc7z6ezsAmBvM2fOorunh9HRUYaGBtm0aSMAk0SguaWZ4aFhVAGg1vRp02lrawPgP6EaVhkeHEIVACbVNzSQz+cZGhoCYG91dfVkMlkKEwWqYRUAl/2ngeAHAdNnLeCQI09l9tyleL4PgMtc5jKX/acZAJe5zGUueyIgALS0dnHAYScwZ8EKMtkcAM+m4eEh1FqmT5sBwKSOjk5amlvYumUTYRgB8HhE4OBDD2Pd2rVMTEwAkJg1aw5jY6NsWL8WgH+Hxx55mD/9/rfU+vGPvs9XvvR5fvKjH7BnTy8AtUTg4EMPY/Wqx5iYGAfgkEMO42UvfxUve+WrSbz8la+hra2Nru4uXvbKV1Prla9+Lee99GW86LyX0NnZBcAzIQIrDziQnp4pADwVLc0tpFIp+vr2ALA3RDBGsDYGwGX7EwgYQ/e0ORx0+ClMnT4fz/cBcJnLXOay/xQD4DKXucwFQZAil68H4OkQMXT1zOTAw05m0bLDAHg27dq1k0WLlwIwaeas2YgIGzduAOCJLF26nDiOufWWGwFIiMCUqdO45+47UQWA/xYrDzgIYwx33XE7AIn777+HKy6/lD//4bf86fe/5ZabbqRSqXLDddfyp9//llq//+2v+cbXvsJPfvQD9uzpBWBfZs6cxYtf8nJe9spXM2nJsuXU1eU5+/kv5GWvfDWJV7/2jZx62hmcdc7z6ezsAuDJmjVrNtZadmzfBsDe8rkcmXSW4aFBAJ4qELp6ZnDUCWeztyUrjsBVAE+VAABBkGLGnEUceuRp5OsaAHCZy1zmsv8EA+Ayl7ns/6Nsro7O7unMXbiSAw49kUOPPoOe6XMBeCZEhJa2LjzfB+DZsmb1appbWpg+YwYAQeCzcNFiRkZH2L1rJwCPp7GxiTnz5nHLTTeiCgAJVbjh+mvp6+sD4F/J5nLMm78AEQD4d2lsbGLWrNlcdcXlVMMqAIk4tgwPD6EKAB0dnaDKyMgwAE/Hli2bufKKy7joL3/mT7//LYnHHnmYiYkC//z7X/nT739L4je/+jlf+8oX+cmPfsCePb0APBlB4DNj1iwGBgYYHBwAYG/GeCAKwLOtqaUDVwE8U8bzSWfzALjMZS5z2X+CAXCZy1z2/0V9QxMz5yzhgENP5MDDTmLuwgPo7J5BLl8PwLMpjiIAni2joyP07t7FwYcchgjMm7+QlpZWHrjvPsIwAuDxZDIZbr35JkZHRwCY1NzcwjkveCEve+Wr2dv06dNpaWnlZa98NZNe85rX8/wXvIgTTz4VEQB4tnme4Ygjj+Kee+5idHQEgMfTM2UKhWKR0dERACalghRTpkwFYF/q6+vJZnNUKmUARkdHqIZVAPZW39BANpcD4OmYNWsOzU0trHr0UVQBYG9Nzc0AjIyOAuCy/zagoAqAy1zmMpf9JxgAl7nMZf/LjOfR0TWNxcsPZ/lBxzFl+lxy+XoA9lYtlwB4JsbHhnno3psAeLY98vBDdHZ0smLlgRx66OEMDw2xZvUqAJ7Inj29DAwMAFBreHiI6665mr9ddD5/+v1vqbVt2zaGhgb50+9/y6Qf/+j7fO0rX+S6a65GFQCebXFsufKKy9i+bRsAj2fe/AXMmTuXfD7PuS95OS975auZ9KrXvp6XvuJVHHvs8YgAwL5MjI8B8ESMGJ7/wnM56OBDEQGAJ0sEli5fwfjEGOs3rANgX/K5PMYYbGwBeDrGRobYuPYhXLY3gGeqb/d2Rob6AHCZy1zmsv8EA+Ayl7nsf1F9QxMz5yzhwENPYt6iA2lu7QSgVrEwzp7dW1m3+n7uvu1Ktm1eA8DTURgfZd1j9/HwfbcwMT4CwLNt584dbNq0gZNOPo2WllbuuusOqmEVgKdrfHyccqkMwP+SDevXct9993DtNVfxp9//lknXXnUF6XSandu38+ijj6AKALXy+TyB7zM0NAzAExkdHeGB++7luOOP56xzXkgqSAHwZCxctIRpU6dx9513UCoWAdiXuvo6bKyMjAwB8FSBUiyO07trCy7bG8DTAcpA/04euvcm1q95AGstAC5zmctc9p9gAFzmMpf9L2lu7WTRssNZftBxTJk+l3QmC8CksdEhNm94jPvvvp4H7r6eDWsepL93O2G1AsBTVa2UWfvYPTx474309+0AFIB/l107dyKiDI8Ms3H9egBcpAo33XADa9esBiCRClKcdMppbNmymb/8+fcMDQ0CsLeu7h6sKgMDfQD8K6tXPcZjjz7CwoWLOOCggwD4Vxobmzj6mGPZuGkjjz76MACPp6GhkXKlRKFYBMBl+9vY6CAP3H0jax+9l4nxEQBc5jKXuew/yQC4zGUu+1/Q2NzOwqWHsHj54bS0dQIwqVousWvHJh554FYeuf8Wdm3fQKkwDsDTVSyOs37Ng9x357UM9O0C4N9t+fKVnHTKqaxfv55sNstrXv8GpkyZCoBrmltbWLhwMakgBUDiyKOPYXRkhMsv/SeqALAv06bNoHf3LgYGBgB4Mh64/z727NnDrl07AXgiqSDFc846G7XKTTdchyoA7EsQ+DS3tFIsFpkYHwPAZf9poAAMD/Xx2IO388j9t1IsjAHgMpe5zGX7gwFwmctc9t+sobGN+YsPYunKI2lt7wFg0mD/btavuo/77r6ezesfYWxkEICnAxSAwvgoqx++iwfuup6+3VuxNgbg38nzDGc+53kcd/wJ3HzTjfzz73/lz3/+PWEY8rJXvJpzz3spLS2tAPyvqaur5wUvPJe5c+cB8GQNDw4RRlVe9spX8+rXvp7nPPcsUqmAKy6/BFUA2JfGxiba2tt59NFHAHiy+vr6+M2vfs6e3b2ccuppNDY2AbA3ETj1jDPJ53JceMFfGB8fB2BSY2MTqSAFQGLmrDm0tDTTu3s3qgDgsv+0/j07uf+u61j10B2MDPcD4LKnCgWJDAAu+3eSyIACgMv+PzIALnOZy/4b1TU2M2/hASw78CjaO6cCMKmvdxsP33cTax69m749O7BxBMAzUSmX2bj2QR667yaGBnsB+E+YO28+b3rz22lobOR3v/0V9993LwDDg0P87je/5J6772T6jJm88c1v5W3veDenn/Ec5s9fQH19PQD/TkuXLeelL3slL3vlq9mXU08/Ez8VsGTZcl72ylezL6981WuYv2Ahz3nuWcydOw+AJ2vjhg385lc/57Zbb2H6jJmsWHEAZ53zQhobGwHYlwMOOJChwUFmz57Ny175avZlybLl1NXlOfv5L+Rlr3w1tV73xjdx4EGHcO6LX0pjYxMAkzzP8Nznnk1jQyN//uMfGB0dAaBWW3sbr3jVq3nHu97LK1/9Wp7znLMA2Lx5EwAu+08aGxnkkQduZd2q+ygVJwBwRW5VO/kHupCqB0Ct9OYm6u+agjeeAuBfMRWf+lun0XDzDOpvn8aT1XDrdBpvmEkwmAXAZf9K/pEOmm6YRf3t0/hXGq+bRWZTMwBPhyn7NNw2jdxj7UjVA8Bl/24GwGUuc9l/k2w2z9wFK1lx4LF0dE8HYNJg/24ee/B21q9+gPGxEQCeCVDGx4ZZ+9g93HfnNfTu2oqqAvDvJAJz583n1a99PQcffAh//9uF/OVPf2B0dBSASXFsufGG6/jFz37EY489SiadYeUBB/L8F57LuS9+GQsWLATg6UqlUmSyGQD25bFHH+bKKy7j/D/9nj/9/rfs7Xe/+RXf+OqX+PlPf8yffv9b9uXHP/o+X/nS5/nud77Jhg3rAXiqNqxfxy9/9hPWrF7F/PkLOe8lL6O+vh6AWi0trbR3dHDjDddx0003cPml/+RPv/8te/v5T3/Mt77xNf7wu9/wp9//llo/+dEP+OqXv8AvfvZjRkdHAEg0NjbyonNfytjEGH/58++ZmBgHYG8bN2zgt7/5Jdu2baGnZwqpdIpVjz3GhvVrAXDZv5uqpW/PDh685yYeeeBWxkYGAXCJhAa/L0cwlMUrBADUMpHBG0+hAgBPhlgh7B5n/Mjt1KrMGMErBJSW9DF+5HZqlWcNYyoe3mgGAJf9K6igKIUDdzN+5HYeT+HA3SBK0JdHIgPAE5HIgAWAWlLxMBMp1I8BeKpMxafu3m7S2xrBAsDe6u7tIbuuFSwAPBX+cAZvPIU/lqbhphnU3z6Nx9N4/Uxyj7WDAsB/GwPgMpe57L9F95RZLD3waDp7ZgAwaWSojzWP3MWaR+9mZLgfgGeqXC6y6uG7ePi+mxno24WqAvDvlM3lOPb4E3nhi15Ma2sr5//lj/zlz3+kt7cXgMczOjrKpRf/g+9+5+tcdsk/ue/ee/jDb3/N2rVrANjbxPg4jz36CACPJ44jBvoHiKMIgH1RheHhIeLYAvDvkM/lKJfKrFmzCoDHUw2rXHLJP7nqysswxpBOpwGotWjxYu6883ZGR0col8qMDI8A8EwtWLCQo445liuvuJSbbriBOLYAPJ44ttx80w089OAD/PH3v+XKKy5DFQBc9u8CyuhwP/fffT3rV91HYWIEABcFgzm8UkC1Z5youQzA3tQo+BaASanddZhiAMCzRT0lai0C4LJnm6Zi1LcAPJHM5iaar5lDZmMzALUILBgAmOSNp/CHMwA8EVP2CAbyZLY0IdYAsDdT9gj25DFVH4B9Se2up/7OqdTfPo1JDbdNo/6uqdTfMQ1vJI2pelRmjDB+5HYSYiFqLzB+5HYSmorxxtNI6AHw38YAuMxlLtvf6uqbWLTsMGbPX04qlQEgMT42zLpV9/HYQ3cwONALwDNRLI5x2w3/JHHfHdcwPLgHgP+UUrHIzTdez0UXns9dd95BuVQG4MmKY8sjjzzMtddcRTWsArAvf//bRdx/370APJ7LL7uEf/7jr4RhBMD+UigWufCCP3PPXXcB8K88/NCD/PTHP2RgYACAWrfdegvbt20D4Nm0du0aLr/0EkZHRwF4MkaGR7jyisvYuXMHAC77d3nw7hu47YZ/ctsNF/Pog7dTLhYA+E9CIb2liabrZtFy6TwSTdfMJrOhGRQA/pOCPXk0FRN2FKm7r5v626dRK7WjAVPxyd/XTf3t00g03DyDuvt7qL97CqYYAPDvJlWPuge6aLl8Hi2XzKf5yrlkV7eBBYC95Va10Xz5PFK76gFw2VOhvqXaNQFALX8oQ/3t05jUcNs0Gm6bTv3dUwj25AF4PGY8DUB55jDqWwD2xeZDbCYCYF+qXeMUlu1h/PDtlJb04RUCyjNHGD59AyOnbiRurADwr0StRTQVA/DfxgC4zGUu25+mzpjHsgOOoqWtC4BEWK2wef0jPHzfzfTv2QHAs2F8bAQAl7nMZf8fFQpjAOxPuVXtZNe3UFw0wNBz1jNy8maipjK5tW1kN7QC8J9iigHBQI5qzzhha5Hikn4KB+5m/MjtTKpOHcOmIwoH7Wb8yO0kxo7dytBz1jF6/BZsLgTg38kUAxpun4Y3lmb8sJ0MPXcdEwftIujLk3+oCxQAanljGRDFH0kD8P+Nqfjk7+um/vZpPJ78fd2Yig+AVD1MIQDgiagoeApArailzPiR25k0dtR2hk/fwPBpGwk7CwA8nmA4iwYxYVsJgIQp+/hjaQCeLARsPgQDAP8fGQCXucxl+0NjcxtLVx7FjNmLMZ4PQKKvdzuPPHALu3ZsAsBlLnOZy/6XeOMpUrvqqUwfpdozDgI2E1FYsYc4HxLsrENCA8B/Qmp3HQiUZ44CYNMRNhUB8EQkMqAA8O+GQu6xdmwqZuyo7UjFo/nqOeTv78ZEBm88TWpPHQCTTCEAIG6o4g9nAfj/xqYjCgftZvzI7TyewkG7ieurRHUVgoEcQX8egP8kFMxYCqyQf7CL+tunkWi4ZTr1t00jvaMBgGeLWCGzoYX626eRMIUUqR0N1N8+jYQppAD4b2UAXOYyl/0neb7PzDmLWbryKBqb2wBIFCbGWPvYvaxffT+lYgEAl7nMZS77X+ONpZHQYAoBKAAkNBUTN1TwKj5eKQDg302qHuntjZhCQP7BTiQ0mIpP4y0zaLh1GvW3TyOR2tGAqfjk7+um/vZpNNw2jaZrZ1N/7xSwALAvqR0N1N8+jVqZDS1I6JF7pJP626dRK7OhBbECQK1gKIc3lqa8YBBT9Mmtaqcyc5Tq1DGsZ6l2jRP05gGY5I9kwLNEzUVMKcAUAgBcYzMRY0dvozx/CFP28UfTADybTNkn/1AnphAAsDdvIoUp+xQX9zN+5HYSE4fsxAYxmoqJ81UAEqbk402kAHi61CjluUOMH7mdhM1XqU4dY/zI7SRsvgrAfysD4DKXuew/pbm1i2Urj2bK9HkATNq5bT2PPnArA307AXCZy1zmsv9VcX0FTcV442kkMgDUskGMTcUA/LultzdALNhMRNRWRAOLehZVCDsLjB+5nUR16hg2HVE4aDfjR25n4qDd2FRE1FQCAwD7Up06xviR26lVnjuEBjHFZXsYP3I7tcpzh1CjANQK9uTQwBI1lchsbcKmI0pzhlDfgm+JW8qYig8KAAl/NE3UUCFqqiCx4I9mAPj/QgOLxAapGgD+FRT8wSz+UBZTDABIBP156u+cSv3t00ikdjRgKj75+7qpv30aifx93ZiKjz+Uof72aeyt4bZppLc10nDXVPzRDAC1/KEseErUWgIg4ZUCvIpP2FEkai4DkLCpmPxDnTTcOIOgNw/Ak+EPZ/DGUwD8rzMALnOZy/4Tps9ayOLlh5GvbwQgMTrcz6MP3saWjauIohAAl7nMZS77XxY3VBk5eTNjx21FAwtAQqoe3liauKGKzUQA/DuZsk9qVz3l+UOoZwFIaGDBtwD8t/CHs9i6KsQGfzBH2FVAfYtXSGFzERrESGgwFR8AFMx4mqipTFxfQY3ij6QB2JtUPeoe6KLl8nm0XDKflsvm03DTDBrumIYp+wD4o2mar5xLyyXzSdTd3w1Adn0LLZfMZ1J2fQvBYJb6O6fSeNMM/JEM2TVtNF8xl5ZL5tN0zWxSu+oBqIWF7Oo2mq+cS8sl82m5bD71d07FlH0A9qXaOYGo0HjTTFoumc+/0nLpfFK9dYgVvIkUAImwrUBh2R4mDt3J+JHbGT1hC8NnbGD8qO2MH7mdROHg3YSdBYrL+xg/cjt7GzlpM0PPW8fIiZuJGssA1Ar68yiKehaAhBlLo0DYXgBgEp4ydsR24uYK9fdNof7OKZiyD0DCH85Qd9cU6m+fRu6RTiT0yG5oof6uqdTfMQ1vNA3Av+IVUgD8NzIALnOZy/6d6huaWbrySKbNXABAIo5jtmx4jEcfvJ3R4QEAXOYyl7ns/7P07nokEsqzhwH4d0tvaSLsKBC2FwD4byWxQGzAKP5wBgkNUXMJAFP0ifNVAGqZYoCJDXFdlYTNRvjDWQD2ln+4E1NIMXb0Noaet46xY7aCZzETARIaAKLGCsOnbiBsLRI1l5k4YDcApXlDFJb2ETdUGDlxM6V5Q8SZCM1EmIpPZm0r3kTA2DHbGD5jA1FLidzqNkwxACAhkaH+zmlktjdSWL6HoeeuY/SYLXjFgPyDXaAAsLewo8DwqRsZO3YrcV2V8pxhhs/YwNDz1jEpbCtS7Zxg5JRNDD1vHYmRkzYTdhQASCBg8yHqWwASWEABIIGCN5Ims7YVU/YBeLJMMcArBGgmxh/NAJAIhrNoEBM1lQGohYHC8l5Kc4bwB3LkH+hCYgEgai5TXNbHxKE7KS7bgwYxpblDDJ++gZFTNxI3VgD4V7ACwH8jA+Ayl7ns36Vn6hyWrDySxuZ2ABJjI4M89uDt7Ny+AQCXucxlLvv/zhQD0lsaKS0cJGopAfDvFAzkECuU5g8CUEtCA5EhtaOB+tunkUjtaMBUfPL3dVN/+zTy93VjKj4A+yKhQWIDwDMloYdEQpyv4o2nwFPifIip+EjkoYEFoJY/kkE9i82HIGDrqphSgCkEAEwyZR9vLEXYOUHUUAEgaqgwfugubF2IWAEggYGwq4CpephSAEDCH09T7ZnA5kMAbD6k2l6AWLBNFSYO3k1cV0V9S2XqGFjBG08BkEhvbcQfS1NYvodqzzgI2FyE9Sym5GOqPgCPBwFT9cAo6lsAJkksmFKA+haAJyv/aCeNt8zAFAIAJtl8iM1EAEwyxYD626aR2lUPwN5Su+uIMxFhWxG/PweAxII3nMHWh9hMBMDeECgtGKA6ZRxT9pHIAyBhcyHqWwD2RayQ2dBC/e3TSJhCitSOBupvn0bCFFIA/LcyAC5zmcuebZlMjvmLD2LWvKV4ng9AYtf2jTz64O2Mjw0B4DKXucxl/9+Zsk/+4U7Ks0aoTB0D4N8trq9QXNgPAgC1JDZoJqa0cIDxI7eTqE4dI86HTBy+g/Ejt1M4aDdxQ4U4FwKwN7GCxIbUjgbqb59GrcyGFiT0yD3SSf3t06iV2dCCWAFgknoWNYqEBlFBURBFqgZiwaYjJPTQlMVmIgD80TRxfQWARNhcQiKDP5oBYJJNR9hcRLCnDn8sDUBCUzGluYNY3wIwqdo1AUDQnwNAqh6mGBB2TgBQS31LtWscgEmaiQCQyACAQtBbR1Rfodo5AUBCfcvEYTsZP2IHNh0B8HhUFDWKehaAveFZ1LcASGSou78bfygLwL54YymCPXnUKKICwOORyJB/sItgOEN6WyOm4gEwSaoeqd46KrOHiZvLBENZpOrhj2TxSj5haxGAx4NAcUk/hRV7sOkIgCdDjVKeN8T4kdtJ2HyV6tQxxo/cTiJuqBDnQgD+GxkAl7nMZc+mlrYulqw8kvbOqQAkqpUy61fdx+YNj6JqAXCZy1zmsv/vTNkn/2AX1Z5xKtNHAfhPsOkYDADszWYixg/fgTeSwRtLAeCNp8FY1FMAbCZi7KjtVKeMA7A3U0ihopTmDzJ+5HZqlecOoUFMcdkexo/cTq3y3CHUKACTNLDgW0w5AGCSP5xBrGDrqnijaeJcCAAK3nCWzMYWWi6ZTyL/cCcSGvyRNACTECis7EV9S8Mt02m6ag75B7rwJlKE7UVsPgRgks2FRE1lUrvqQSHoz4GnRPUVAJ4qU/ExFQ/NRiAAMMlmIhIACVPxyN/fRf3t06iVf6gLqXqkdjRQf/s0aplCikT97dNINN40g9TOeuru68YfygJQC4Xs2jbUt0wcuJu4rgrAvmAh93AHwXCGyrQxxg/bgU3HAExKb2kkaiwTtheJmkqgkNncRNCXQz2l2jkBwBPRVEzUUgLgyYjqK4wdu5VqzzgA+zJ+xA5KCwcA+G9kAFzmMpc9W6ZMn8eiZYeRyeYBSAwN9PLYQ7fTt2cHAC5zmctc5gKpeuQf6iRsK1KZPgrAf5Owc4LMhhYkMpiSj60LAXgyTNlHBGx9FYBnKm6sYooBmrIIgin5pHY1IFYwxRRBX57qlDEAvIkUJjaMHr+FoeetIzFy4mZsNsIfzgJQy2Yixg/fwchJm6lOHSPVn6fhphnkH+4EBYBa1Z5xvIkUwVCOVG8dYWsRBAD+nWw6prR4gMKBuxk/cjuTSvMG0VRMcXE/40dup5bNV0mMH7mdxMhJmxl63jpGTtlE1FICoFZ6RwP+aIbCij3YXAjAvkhkqLu/h1RvHaX5QxSW7wEBgEmm5ONVfUoLBwFQT6n2TJDe1khqRwNRUxmbDwF4NphiQHZ1G9l1rdh0DMDjCfpzmLIPwH8jA+Ayl7nsmfKDgHkLD2DmnMUATNq2eQ2rH7mLYmEcAJe5zGUuc4FEhrr7u4mbKpTnDgEwKbWzHn8sDcD+FLWU0UxE3b3dmJJP1FAB4Mnwx9LEmYg4XwXgmQrbC5iqR1xXxaZi6u+YRtRaImqokH+wk7CrQNRcBsAbS2NTMXFdFYCEzYfEdRVMKcAUAgD2ZjMRxSX9DJ+6keKyPlK76khvbwCgVthaRFMxqZ31mKpPtXMCgKdDgxj1FakaAPYmkcErBgAkbCYiATApGMqCQFxXBeDp8iZSZDY1U1o4QNRSAmBfTNmn7q4p+INZCsv7KM0bBAGAWjYbUVjah/oWgERl6hiaipHYUJkxAsAzIaEHVsg/1kGiOm2MuLFK/Z1Tqb99GpNMIUVqRwP1t0+j4dbp1N3TQ/0dUzHFAID/NgbAZS5z2TPR0NjC4uVH0tE9HYBEtVpm7WP3sH3LWgBc5jKXucwVKOQf6UDTEcX5AwBMklhI72oAICGxUH/HVJqvmEt6RwMA/0ml+UMQG1Ahai8C8K9ILHhjaaL2AuopAM9U2F4gzoaktjYwdtQ2hs9cT2neIONH7GD4jA2gkH+4E4BgKEfUXAIBgElhexGJDN5ECoBEancduTVtANSqTB8lrqtiKj4AtTSwhB0F0tsasX6MzYcAPB3qKVF7AW88jT+WBqBWdmML/mAOgH2Rqkewp46opYTNhwA8HRIZsmtbKc0bojJ1DIBaGsSUFgwSthVpuHk6JjaMHb2N6tQxAJ4siQxYgUjwB3OgAFBLqgaAx+OPpsk/0EXz1XOou7uHqK3E6DFbGT9kJ3FdlWrXOIVlexg/fDvjR24nYfNVqlPHGD9yO2NHb2P4zA2MnrAFmwsB+G9jAFzmMpc9XZ09M1i84gjqG5oASIwO9/PYg3cw0LcLAJe5zGUuc0lqVz1mIkVlxij+WBp/NE3CH86Qe7QDMxFgUzEA3kQKfzSDRIagLw/Af5I/mMUrBIgV6u6aQmp3HSgAPB5/OAuxUJ0yDsCzQT2ltGCQYDBH/oEuTNkHwB9LU3dvN6kdDZTmDiGRwR/OICoA1LLpGImF1M56UACwmYjU9gbyj3ZgigEAEhkyG1owxYC4vgrA3sKOIpqKCTsnANgbKiSk6gMwSao+qCCxASBRnjGK+pb8A90E/TlQMGWf/EOdeMMZqt3jAOxLdkMLEhpKcwcBeLoy61uozByh2jMOwN6k6pHe3kjusXYq08YYPXorNh8C8GSZsk/d/V3EuZDi0j4ym5tovHkmQW8eFACixgrVqeMAPB6peqT68lTbCoyeuIWJg3ZhsxEACQRsPgQDAP+LDIDLXOayp2PW3KXMXbASz/MBSOzasYnHHryDYmEMAJe5zGUuc41XDPBHMtTfNo2Gm2cwqeHW6aS3NaJBjM1EAMR1VaLGMupZwtYiAP8JKGQ2NVP3UBflWSMMn7KJsL1A3f09NF89h/wjnfgjGVAAqJXaVU/UViRqqADwr6S3N5Bd20ois60JiQ0Ae4taSkwcugtTDmi6bjYtl8yn/vZpaGAZP3wHGKXh5ul4o2ky61vIrm8BIJHaWU/+4Q6wQnpnA3UPdAOAUdS3eCMZGm+eQcsl82m+cg6ZrY2UFg5S7ZoAYG9xLiRqLBO2lQColV3fQt0DXZiKR/2dU8iubwEgu76F+junYCoe+Yc6ya5vAcDmQsaP2EGcrVJ/zxRaLp1P03WzkNBj4sDdqG8BqIVCdk0rqR31FJf0EzdUAXi6SosGCFtLANTyhzLU3zWFxptmYNMRo8dvobRoAAwAPFmmEFB/11Ti+pCJQ3ZSmTnK+OE7AKX+nik0XzWXhtungWcB8EfT7M2UfQDC9iIjJ26mcGAvNhMB8HQEvXkSAP9tDIDLXOaypyKdybF4+eH0TJsDQMLamI1rH2Lz+kdQFACXucxlLnNRad4QQ89bx+MZO3o7AAn1lPEjdjB85gYqM0YB+HfzhzM03DadYCDH6DFbKc8bAqMUVuxh7OitxA1VUlsbaLhlOs2XzaPp2tmkdtcD4I2lMMWA0rwhAB6PehYJPQAqU8aI66uktzfiD2SJsyFxLgRgb1FjmfEjtzP0nHUMPW8dw6dvoLBiD5qKsZmI0RO3MPS8dSRK84YASFSnjDN85gaGnreOxMSBuwGIGiuMnrCFsaO3MXz6Boaet46h565n5KTNVKaPArAvQX8Wm4mwuRCAWqV5Qww9bx2TSvOGACjNG2LoeeuYVJo3BEDCZiImDt3F0JnrGXreOoaes56Jg3ehqRiAWlL1qLu/h6CvjonDdlHtGQfg8YCAAsC/gkIwmCX/QBdN188iu7aNas84w6dupHBALzYbAfBUpLc0Un/vFEpzhiis6AUDAFFzmdHjtjJ21DbC1iJmPEVmYwv5B7pouHkGtXKPdCCRASChgQVgkoSG/EOd1N8+jX0xhRSpHQ3U3z6NRMOt06i7v4e6B7tI7apHKh4A/y0MgMtc5rInq6GxlcXLD6e5tROAxMT4CI89dAe9u7YA4DKXucxlLvtvQyzY+pA4G1F3Xzep3fVMHLyL8UN3YrMRAJOixgpjR2xn9OTNlOYNEnYWGD98B9XucQCCwTyl+QPYTATAvlSnjDN64hbCtiIAGKj2jDNx4G6i5jLF5XvQwALw3yQYyFF3fzfeeIqgL0+1ZxyA/xSpeuQf6yD/cCeV6SOMHbuVqLEMwOOx+ZBq9wQAj8cUAnJr2qi7u4e6+3rwRjOUFwwycuJmxo/YQWXaGBgAeCq8YkDukQ4k9hg9ZgvVqWMA7C1qKTNxyC5GTtvI0HPWMXrcFgoH9FKaP0h51jDVrgkKK/cQ11UB2BcNLMXF/RQO3M34kdvZ28hpGxk9YQvjR24nMXb0dobPXM/w6Rup9oyj6RiA/xYGwGUuc9mT0d41jcXLDyeXrwcg0b9nB6seupOxkUEAXOYyl7nMZf+NbD5k/JCdVKeOMXHQboqL+7GZCIDHYzMRpYWDTByyi7iuCkCiPGuYqKUMwFMVtZQYO3obUXMZgP82/nCG1O56Gm6dTtRUJmwvAvCfoqmYwpI+Jg7eRdheBOBfmTigl/KcIRAA2BebDykuHGDi0F1MHLyL8uxh4lwIwDMR50KKy/oozxkCAwD/CgbihiqVqWOUFgxSXNrPxCG7iOuqADwRDSw2EwHwv84AuMxlLvtXps1cwPxFB+L5PgCJHVvXs27VfYRhBQBXLVhyCC5z2X8KgMtc5rJ/l9K8IYaes47hMzZQnjsMgMtc9u9mAFzmMpc9HhHD3AUrmD5rIQAJBTaufYitm1YB4LLC2CjVShmXuew/ZXx0GACXucxlLnPZ/xcGwGUuc9m+ZLJ1LF5+GJ09MwFIlMtFVj98B727tgDgsvWrH+DRB2/DZS77T9uw5kEAXOYyl7nMZf8fGACXucxle2tsbmPx8sNoaukAIDE6PMDqh+9keLAPAJe5zGUuc5nLXOYylz2bDIDLXOayWh1d01i8/AiyuToAEn27t7Hq4TspFsYBcJnLXOYyl7nMZS5z2bPNALjMZS6bNG3mfOYtOhBjDACJ7VvWsn7NA1gbA+Ayl7nMZS5zmctc5rJ/BwPgMpe5LDF7/nKmz1oEQMJay4Y1D7Bt8xoAXOYyl7nMZS5zmctc9u9kAFzmMlel0hkWLTuM7imzAEiUy0VWP3IXe3ZvA8BlLnOZy1zmMpe5zGX/bgbAZS5zUV19E4uWHUZLWxcAibGRQVY9fCcjQ30AuMxlLnOZy1zmMpe57D/BALjMZa5paeti0bLDqKtvAiAx0LeTVY/cRakwDoDLXOYyl7nMZS5zmcv+UwyAy1zmku4ps1i07DBS6QwAiV3bN7D2sXuJoxAAl7nMZS5zmctc5jKX/ScZAJe5zBXTZy1i9vzlAEzavOExEgAuc5nLXOYyl/0n+cMZGm6eQXp7AygAPBsym5rJP9SJRAaAZ0Nqdz35hzqRqgfA0+UVAzKbm8ECQK3Urnrqb5tGqi8PwNMRDOaov30a2bWtAEhoAHg8EhlQAKhVd1832TVtoADweOrumkLu0Q6k6gHgsqfCALjMZf/fiQjzFh3ItJnzAUjEUcjax+5l1/YNALjMZS5zmctc9p/mD2fxxlL4/TlQAHg2VKaP4o9mqLt7ChIZAJ6patc4xELDbdPwRzMATPKHsvijGQD+Fb8/R3ZVG3UPdwGwN388jTeSIb21kbp7ewj68qAAsC8o+CMZ8o900nz1HOrvnII/nsIbS2PKPnV3T6HxphnU3z6NvTXcOo2ma2aTf7gTFAAmleYNkt7eQN3dU5DIALAvJjSYQoD6MQAueyoMgMtc9v9ZkEqxaNmhdHRNAyBRLIyz6pG7GOjbCYDLXOYyl7nMZfuDP5QlailTXN4HBgCeCn80TdCfB6CW+pZq9wReIcCUfAD25g9lkMgA8GQgUJk7jAk98vd3YYoBAInMlibqb5tGZn0LKAA8ntTuOmx9lcLSPgBq2XwV9Sxxvkpl+ihxXZX6e3qov2cKAHvLrm2l7r4eUr11qBeDwNjR2xg+bSMTh+zCZiJEIa6vMn7kdvZWXNaHepa4vgoCAJPihirVqWMEgzmCPXkAHg+BBQMALnsqDIDLXPb/VSabZ+GSQ2lu7QIgMTLUx+qH72RsZBAAl7nMZS5z2f9HKOTWttF89RxaLplPy2Xzqb99KqYQAPCfhBUSAAlTDJCKR2lRP+pbAGp54ymCwSwAjyfoqyP3aDv1t09jb8GuOhDIPdJJ/e3TqNVw63Tq75xK7pEOUADYl/SWRvyxNACJqKFC2FLClAL8kQwAEhrMWAp8S9xaAgGAffGHMngTaUpzhlDfggUUAPaGQGnBAJWecUwhwFR8AGqVFgwycfAuigsHiBorKArAU4GATUcA7K06ZRxNRwB4Yymk6lH3QBfpLU2gAOCyZ8IAuMxl/x/V1TexZMURNDS1ApDo272N1Y/cRblcBMBlLnOZy1z2/1X+oS6CXXWMH7qToeetY/zQnXjFFPV3T8EUAwD+U1K762i6bhYNt02j/vZp1N3Tg1f2ya5up/72aeyt/q4p1N85jdxj7QDsTaoeqV11VKeOMX7kdvY2dtxWRk7exPiR29lbtXscBDQVI7EBYF80E5PaVQ/ApLBjgqipTNhRAMArpDAVn6i+QthcAuDxpLc3EtdVqfaMg0L93VOpu3sKUvUA2BsCpQWDhO0Fgr48AP9JUUOFsaO3U+0eJ7WrHjyLKQakdzYgoQfA3lAIevNIZABw2RMxAC5z2f83jc3trDj4ODLZPACJndvWs37NA1hrAXCZy1zmMpf9f2UKAcFAjrixQtRUBiBsL1CeN4RXDMhsbQTgP0lioTxzhPEjtzN23FZGTtrM+JHb2ZeopYzNhpRnjwBQS2Kh7r5uzEQKm4oBeLJM2ScYyjF+5A6KS/pR3wKwL2F7AVMI8MZSACQq08cYP3I76lsAgv48EhrCzgIIAOyLP5TBH8lSWjAAAsFQDn8kjcQGjAIwSVQwEyn84QzpHQ2kdzaQf7iT7NpWAP4VqXr442kAnqrc6nbyD3YhkQHApiP8sQz4inqKzUbYbIimYgBq+WNp6h7sou7eHnIPdwDgsidiAFzmsv9PWjt6WLrySAAmbd7wCFs2rgLAZS5zmctc9v8dAojijaYxFR+ARNRUQj3FlAIA/pspCqIA1FJR4pYy5dnDVKeMA/BkmbKPzYTE+SoAT0Q9JWoqk97WCMDeUPAHsmg2oto1AcC+SGTIrmuj2jNO1FwGhfSmJmw6Jm4uU3/nVOru6ya3qgOJDEFfntRADowSdk0wctJmhp6zjtKCQQASQX+e+junUn/7NBKZDS1I6JF7pJPGW6bTcMt00jsaAPCHMtTfPo295R7pRGIDwKTSvEH8sTT1d07FlH0A/MEscV0VgFoSGrAGfyRD3b3deCMZKtPH0HRM2FkAwGVPxAC4zGX/X3T2zGDhkkMASERRxNrH7mXX9k0AuMxlLnOZy1xgcyGjx25l/Igd2HQEQC2MAvC/CAPVnnG88RR1d0+h/vZpPFn1d08hvaWJ/INdSGQAeCKVaWN4E2n8sTQAtfzRDN5YmrCtiM2FAOxNQkPd3VMwhQAJDXV391B3fzfBUJbS/EGKi/oZO3obEwftprB0D+pb4voK5ZkjRI0VooYK6lskFgAmhW0FCsv2MHHoTsaP3E7cUgajFJftYeSkzQyduZ7K1DEAopYy40duZ2/FZXuwmQgNLAAJ9S2l+YP4Y2my61uRWPAmUkRNZUzZR6oe3nCG+runkN7SBApRU5mJg3dTmT6K+jEALnsyDIDLXPb/wYzZi5m7YCUAiVJpgtWP3MlA304AXOYyl7nMZS7RwGIzEQCT/IEcANWuCQD+k1Ahs6GF+tun8a/4QxkAHk9UX6G4tJ+JQ3cyfuR29iYWEuNHbqfW8KkbGXreOiYO3oX6FoAnoqmYqLlEZl0LKABMSu2uQxSqU8cB2BcNLHFTGQGipjKFA3oxZZ9qzzjVKeMATNLAop4FoJY/lKXxhllk17eCAgACNh+ivkViwRvOgIIpBgBMKi0cpLB8DwB7ixorjB++A5sLAZgUtheI6itILPjDWUSF7JpW0jsaUM8SN5cZP3Qn5XlD4FkAXPZ0GACXuex/3YIlhzB1xjwAEmMjg6x+6C7GRgYBcJnLXOYyl7lMIkNmYzOJ8qxhql0TAPwnIUp57hDjR27nX4laygA8EZsLUd8ioQHg36UyYxRTDEjtqgcgYco+we46osYKYUsRgMdTXNTPyAmbqfaMk9nYggoUFw0AMAkLXiGFqOAPZ8k/2EXdvT003DqN7LpW4oYKKJhSAEAtbzyNKfkgSnprEw23TMcfzpBb00ZmXSt1d0+h/vZp7EvjzTOov30a/lAWgIR6SnH5HooLBgh684TNJQor91CaOwSeAvBEMIqmYwBc9kQMgMtc9r9s5SEn0NbRA0BioG8nqx65k1JpAgCXucxlLnOZy7LrW2i+Yi7Z1W1EbSUqM0YB+P+i7u4pNN48A384A8CzzWYiqlPHyW5owZR9ANJbGzFVn8qsERAAeDwIYCC1s55EaeEAaiz5BztpvGkG9XdNIbemDW88hQ0s6lsKK3uZOHgXY0dtp3BAL+OH7qQ0fxCbCwGoldpdh6igRinNH0SNkn+4k/L0UQorexk/cjuJwoG7kdBQmTHC+JHbSQyfupGRUzcStZQAmBQ1VlBP8SbSRC0lAJ4sFUWDGACXPRED4DKX/S8ynuHw455Lvq4BgMSu7ZtY+9i9xFEEgMtc5jKXucxlidK8IYaeu47xo7djKj4Nt0zHH8oC8L9OYkFig0QGm44BeDxYyGxpwpR9AJ6KyvRR1CjZ1W2YiRTp7Y2ErUWqnRMA/Cv+aIbsulYqs0aIWkpgoLikn4lDdjF+2E6KiwcozxzB1lUxRR+ARHpnAw03zSC9rRGAvUks+INZwrYCCOBZqtNGwQoANhcC8HSkevNglLiuCsCTYQopJDYAuOxfMQAuc9n/mmy+jiOOfR6e8QBIbNm4is0bHgHAZS5zmctc5rK9IRA1lRk/ZCeajsk91o7EAsD/Mqn6mMgQNZWxuRCASaaQov72aUxqvHkmuUc6qLu3B1P2AXiy1LeUFg6Q6svTcPcUUCjPHQIBgCeS3tFA/Z1TAPBHMjTcOIOGW6eT2diMAgCT4nwVU/UxpQB/KEt2VTsYRTMRKADUCvrzgBC2FwFIVKaNMXbMNmwuBOCJ+EMZJDIA1EIhtauBqLkMAgCPBytkNrSQ2dRM0J9DVEAAwGVPxAC4zGX/S5pbOznw0JMASKha1q95gJ3b1gPgMpe5zGUuc9kkU/aR0AAwSX1LXFfFK6Twh7MA/KegQmZDC/W3T+Nf8YcyAPwrXiFAqh5xvgpALZuvMn7kdiaNHr+FoeetY+zobdhMBMBTEbYXqXYUMIWA6rQxouYyAP+KTUeggql6RHUVxo/eztjR2ygtHMTmQgAmxXVVJDQE/VnyD3WCb5k4ZBfVjgIIAExCIb2tkeq0MdS3ACQQUN/iD2eou2sK9bdPI5G/rxuvFJDZ0EL97dNouHkG9XdMI/9gFxIZANLbGsk91k79vVPwRtNEzSUAnghGqU4dwx/Mkt7eQNRYJqqvAOCyJ2IAXOay/xXdU2azePnhACQqlTKrH7mLvt3bAHCZy1zmMpe5bFIwmKPxxhnU3z4NCQ0AtVAgFgD+UxClPHeI8SO3869ELWUA/hV/OAui+MNZ/KEsAP8umQ0tpHrrsPmQ9KYmMhtaAPhXwvYiEwfsZuSELZTnD6G+BWBfoqYy6in5h7sQFcYO20HUWAYgtbsOrxgAkEjtqkeNUp4+AsDeouYyxWV9TBy6k/Ejt1M4aDdxNqQ8d4jxI7czduxWhp+znomDd6G+BaAyfZRqzzjeeApNxcT1VQD+FZuJKBzQy8RBuxk/ZCepXfVktjQB4LLHYwBc5rL/BbPmLmX2/GUAJAoTI6x++C6GB/sAcJnLXOYyl7msllQ8sAbNRqhvAUhIZPAmUmgqJq6vAmDKPo03zqTpmtn4Q1kA/hdILAS9ecLWEqX5g2TXtGIKAQDPJhRyj7WT3dBMaeEgIydspto9QW5NG3X3diNVD4AnEnYW0FQMQMIrBmQ2NVN3XzeZjc0AJLyyDwrqWQrL+rD5EAAUUjsbkMgAIJEhGMhRXNwPAgD7YnMh6lsAnqyouUzUVEaDGJuOAHg8NrDEdVUA1LdUuyfAAICEHgAuezwGwGUu+2+3aNmh9EybA0BieLCP1Q/fRWFiBACXucxlLnOZy/YWdhSImsp4EymCoRwAphiQf7ALUwgoLRjE5kIA/MEspuhjyj7BYBaA/wVBbx2m6lGeM0TUUqI6fYyGO6eS2dwMCADPlCn7NNw5jaAvz/hhOynPGgaBwspeKtNGCXrraLx5BqnddaAAUAsLwUCO3Jo2Gu6YRtM1s2m6ag65RzuI66pMHLib8pxhsJBb3U7dXVOJ66poOia7ug1TDADwJlJIaLCpGACvFFCaM4zNhQA8m1CQkg/AvzJx2E5K8wcBqGUqPv5gFhQAXLYvBsBlLvtvtvKQE2hp6wYg0de7ndWP3EWlUgbAZS5zmctc5rJ9Ud8ycfAuwtYidff00HLJfJpumIVXCJg4YDeVqWMAJKLWEjYXYVMxUWMFgH8HVMhsaKH+9mn8K/5QBoDHI5Ehs7mZ6tRxouYyAJWpYxQXDJJd14I/nMFUfdI7GvBH05iyD0BCIoM/lsYfTWPKPgB7QyGzuZmGW6cTNpUYPW4LUXMZgAQChRV7KC0ZQEJD3b09NF03m+y6ViQ0ACREhezqNtIbmiGGwrI9jJy6kfFDdxJ2FEAg6M3TdMMsgv4cE4ftZPyIHUys7MWUfervmoI/nMEfymIqPgCJqL6CrasC8EygkNrRgEQGgIQ3kcIrBgDsixlPIZEBYF+wEAzm8AeyZDa2AOCyfTEALnPZfyMBDj/mOeTrGgBI7Ny2gfWr70fVAuAyl7nMZS5z2RPRVExhxR6GT9/A0PPWMfScdYwet5WwqwDAJJuJGD1+CyOnbSTsKADw74Ao5blDjB+5nX8laikDsC8o5B5tJ2ouUZw/AMCk6tQxRk7YQnnuMFgh/2AnDTfPoOma2bRcMp9E8xVzqb95OumNzWAFgEkopLc30HjzDLyxFGNHb6O0aAAMAOytPGuY0WO3EjdWMCWf7NpWmq6eQ90DXUhkUE8pLu9j/JhtjB29nbCrAAIopHbXUX/bNNK7Gpg4eBejx24lbC0CELWUKBy0C4kNDbdPJ7u2DSwAPB4UJPQwFY/8/V3U3z6NWvn7uvFKAZkNLdTfPo1Ewy0zqHuok/x93UhkANDAoimLRB6m4gEwqdo1gVcMaL5iLi2XzGdfWi6bT7AnR9xUodozDoDL9sUAuMxl/20y2TqOPOFsPN8HILFl42MkAFzmMpe5zGUu+18UZyI0EwHwr6ixxPkQ9SwAtTKbm4mayxSX9IMAQC1NxRQX9TNy8iaGnrOekRO2MHbUdkoLByjNHyRRWtpPccUebC4EQGIhs76Fuvu7ARg9ZiuFFXuwmQiAJ2LzIaPHbmX8kJ2ErUUmDt3JxAG9qG8BiBrLRI0VACaZYoDNRIwfuZ2JA3cTNVYAqBW2lhg9diuVqaNIZPDKAf5IBoC9IRDXhWg6xqZjSosHmDhkJ+NHbmfS+FHbGT59A2PHbWX8yO0kxo7dytBz1jNx2E7UtwDYTMTocVsYPX4LNh0DMKnaM87wGRsYet46nsjQc9czdvQ2bC4EwGX7YgBc5rL/Jk0tHRx0+EkATFq/+n52btsAgMtc5jKXucxl/4uqU8YZO34rYWsJgH+lsHIPE4ftRAMLQK3y7GEqM0YB+FcQsHVVopYSpXlDlBYMkijPHEE9BSChnlKeN8TEQbupTBsDAwBPRdhVYPzIHYTtRQCeiM2HRM1lEAB4PJqKKazYw8ipGxk7ehthaxGAvVV7xhk/cjtRfQUAm4nQwALgsv9WBsBlLvtv0dUzkyUrjgBg0qqH76CvdzsALnOZy1zmMpe5zGXqW6KGChpYAFz2/4EBcJnL/hvMmL2YOQtWADDpwXtuYniwDwCXucxlLnOZy1zmMpf9f2UAXOay/W3eogOZOmMeAJPuvf0qChMjALjMZS5zmctc5jKXuez/MwPgMpftT0tWHEFH1zQAEmott994CZVKGQCXucxlLnOZy1zmMpf9f2cAXOay/WXloSfQ1NIBQKJSKXH7TZegagFwmctc5jKXucxlLnOZCwyAy1y2Pxx61Bnk8w0AJMbHhrn39qsBcJnLXOYyl7nMZS5zmUsMgMtc9p/kBwFHnXA2QSoFQGKwfzcP33czAC5zmctc5jKXucxlLnONAXCZy/5Tcvl6Djv6TAAm7d6xmTWP3g2Ay1zmMpe5zGUuc5nLXGQAXOay/4TG5nYOOPREACZt27SaTesfBsBlLnOZy1zmMpe5zGWuMgAuc9m/W3vXNJauPBKASRvWPMD2resAcJnLXOYyl7nMZS5zmcsMgMtc9u80Zfo85i86EIBJqx6+gz27twHgMpe5zGUuc5nLXOYylyUMgMtc9u8ya94yZs5ZDMCkB++5geHBPgBc5jKXucxlLnOZy1zmskkGwGUu+3dYsOQQeqbOBmDS3bdeSWFiDACXucxlLnOZy1zmMpe5rJYBcJnLnm3LDjyato4eABJxFHLbDf8kDCsAuMxlLnOZy1zmMpe5zGV7MwAuc9mz6aDDTqKhsRWARKkwwZ23XA6Ay1zmMpe5zGUuc5nLXPZ4DIDLXPZsOezoM8jk6gBIjAz3c//d1wHgMpe5zGUuc5nLXOYylz0RA+Aylz1TQSrNEcc9Fz9IAZDo79vFYw/eDoDLXOYyl7nsf93ai9fiMpe5zCUA/wkGwGUueyby9Y0cetTpGOMBkOjduZl1j90DgMtc5jKXuex/3R3fuoObPncTLnOZy1yy9uK1APy7GQCXuezpam7pYOXBxwMwafuWtWxc9zAALnOZy1zmMpe5zGUuc9mTZQBc5rKno7N7OotXHAHApE3rHmHb5jUAuMxlLnOZy/7XxRZc5jKXuWwSwL+LAXCZy56qqTPmMXfhAQBMWrvqXnbv3ASAy1zmMpe57H9dOYRyKLjMZS5z2aRqBAD/DgbAZS57KmbOWcyM2YsBSCjw2IO3M7BnJwAuc5nLXOYyl7nMZS5z2dNhAFzmsidr9rzlTJk+D4BEGFZ46N4bGRnuB8BlLnOZy1zmMpe5zGUue7oMgMtc9mTMW3gA3VNnAZAoFSd46J4bKYyPAuAyl7nMZS5zmctc5jKXPRMGwGUu+1cWLjmEju7pACTGRod48J4bqFTKALjMZS5zmctc5jKXucxlz5QBcJnLnsji5UfQ2tEDQGJooJdH7r8Fay0ALnOZy1zmMpe5zGUuc9mzwQC4zGX7EqTSLDvgaJpbOwBI9PVuZ/UjdwHgMpe5zGUuc5nLXOYylz2bDIDLXLa3TC7PkuVH0NDUCkBi1/YNrF99PwAuc5nLXOYyl7nMZS5z2bPNADwVTS0dLFhyCC77/2ru/BVkc3UAJIoTY6TSORYsOYT/jwBc5jKXucxlLnOZy1y2vxiAp6qto4fG5jZc9v9Rrq6R2MZEYZUwrBKkMzQ2t/H/UTaXB8BlLnOZy1zmMpe5zGX7iwF4OrZvWcNjD96Gy/6/evTB23jswdv4/6pSLgLgMpe5zGUuc5nLXOay/ckAuMxlLnOZy1zmMpe5zGUuc9n+ZgBc5jKXucxlLnOZy1zmMpe5bH8zAC5zmctc5jKXucxlLnOZy1y2vxkAl7nMZS5zmctc5jKXucxlLtvfDIDLXOYyl7nMZS5zmctc5jKX7W8GwGUuc5nLXOYyl7nMZS5zmcv2NwPgMpe5zGUuc5nLXOYyl7nMZfubAXCZy1zmMpe5zGUuc5nLXOay/c0AuMxlLnOZy1zmMpe5zGUuc9n+ZgBc5jKXucxlLnOZy1zmMpe5bH8zAC5zmctc5jKXucxlLnOZy1y2vxkAl7nMZS5zmctc5jKXucxlLtvfDIDLXOYyl7nMZS5zmctc5jKX7W8GwGUuc5nLXOYyl7nMZS5zmcv2NwPgMpe5zGUuc5nLXOYyl7nMZfubAXCZy1zmMpe5zGUuc5nLXOay/c0A/Ddpa2tDBACeiTPOfC7PPescsrkcAP9OQeAD8FTUNzSQzeUAeCqWLlvOi857CakgBcCT1dzcwqtf+3pOOuVU6urqAXiqznzO8zj+hJPwPAPAMyUCnmcAcJnLXOYyl7nMZS5zmWsMwH/Smc95Hq97w5t52StfzaS3vePdHHv8iYjA6Wc+l9e/8a287JWvptYrX/1a3vWe93HY4UcA8ETq6+uZNn0GU7qnkMlmAKjV2NhIXV09AP/KosVLeNNb3s7LXvlqJr3hjW/hJS97BXV19QC86LyX8prXvZGXvfLVJF756tfypre8ndmz5wCwL4sXL+F1r38TL3vlq3myXvHK13DKqaczZ85czn7+C0kFKQCejCgKSacztLd3UK1UAHiq7r3nLpYsXcZ5L3k5qSAFwBMRgbnz5pMKUgDsrbOzi9e/8a284pWv4WWvfDWTXv/GN3PgQQcD8HhE4NTTTmfp0mUAuMxlLnOZy1zmMpe57H+NAfhP8jyfMKzyp9//lsQl//gbURTR1dVF4KcQEfb09vKn3/+WWvfdew/WKtu3bQPgiSxespSmpkYiG3HGmc/jZa98NbVe/ZrX85rXvZ6ZM2cB8ESGhwYBuP6aq/jT739LYs+ePdTX1+N5BgDf9xkcGOBPv/8tifvuvYdsJkMqlQZgX8bHxwG4/pqr+NPvf8uT8Yff/4Zvf/NrfPXLX+DCC/5MNawC8GTkcjmymQyFiQLVsArAU9XX18fGDeuZPn0GK1YeAMBRRx/Dy175avbl1a99Iy944bm84Nzz8DwDwN6CIOD+++/lT7//LYlL/vE3PM+ns7OLo485jpe98tXsyytf/TqWrzyQo489jsbGJgBc5jKXucxlLnOZy1z2v8QA/DfYsW0r1bAKwONRVayNAXg82VyOJUuXs3v3bn7/m1/zp9//llo3XX8dCOzetYs9fXsAeDrK5TKjo6MA7EsUx4yMDAHwVGWyGRYvXkoqSAHwbBARRAyDA30APF2rVj3K2Ogo/f19ANxz111ccfkl/PkPv+VPv/8tte6+6w6q1QqrHnuUOLYAPFmjI8PccfstXH3FZfz5D7/liksvIZfN8fCDD/Cn3/+Wv/zxD3zvO9/gJz/6AaOjIwC4zGUuc5nLXOYyl7nsf4kB+F/Q1NiIqlKpVAF4PIcffiQA27Zt4eRTT0MEABIicPQxxxGGETdcfx2lYhGA/zaBH3D0scfx8le9hnwuB8C/mwhMnzYdEQCotWjxEl7xqtcwZcpUtm/byu9+92u2bNkMQDWsMjw4hCoA7EsURQDsi+cZDjv8SF72yleTOPv5L6SuLg9AHFsOO+IoXveGN3P2818IwPKVB/CyV76aV7329bzlre9g9uw5ALjMZS5zmctc5jKXuex/jQH4T6pUygA8Gfm6OlJBCoDWtg4qlTKlchGAfZk+bTqz58zhmquv4OYbbyCXz3P0MccDkDj6mOPpmTKFW26+kaGhQQCejFQq4NTTz+Rlr3w1ienTpwNQa/r06bzsla8mcdjhR+J5BoBnYu3qxygUiwA8Ge3tHbzw3Bfzsle+mr2devqZ+KmAJcuW87JXvpq9vfq1b+QlL38FLzz3JQSBD8AkEaGjs5MDDjoY3/cpTEwA8GyIY8tdd97On37/WxL//PtfmZgoAJAwYqhWq/zmVz/nFz/7MX/6/W9JrHr0YcrlCv39fQC4zGUuc5nLXOYyl7nsf40B+E+aGB+jpaWVl73y1STOfv4LqavLA5AIq1UAEulUmuc89yze/8GPsnjJEnZs30a5VAZgb42NTZx48qncdecdbN+2DVW45qormb9gAcccezxLly3n4EMO5d577ubRRx4G4Mmoq6snji1XX3k5f/r9b0ls3ryJ0dERABJhGPLIo4/wp9//lsTtt97Mzp07KRQKAPyn9Pf3cd21V/G3i87nT7//LbXuveduqpUyN1x3LX/6/W/Z2z333EWlUuXRhx8mDCMAJtnYEkcxmzZuIAwj6urqyedyANQSgenTpiMCAM+2o485lukzZgDgMpe5zGUuc5nLXOay/3UG4D9taGiQP/3+tyT++fe/MjFRACBRKBQBSAwNDfL3v1/EbbfexLXXXM2111wFwN5SQYoTTjqJu+66nUcfeRiAxOjoCJde/E+WLl3GGWc8h3vuvotbbr4RgCerv7+Pv//1Anp7ewFIXH7ZJaxft45XvOo1dHZ28Zc//YGN69fxwnNfzIqVB7Bhwzr+euH5jI+PA/CfNDI8QrlUBqBWS0sr1lpGRoYB2FtjfT2CMDIyBECtkZEhoigCINHQ0MCrXvN6XvHK1/CyV76aSa989es472Wv4PkvPA+AJ8PzDIcdfiQve+WrSZz9/BdSV5cHYG+zZs/hOc89i46ODgBc5jKXucxlLnOZy1z2v8wA/Le7847bue/eu/F8n1SQAqBWY1MTt9x8E6tXrQJgUjaX47DDj8BPpSiXy8yfP58pU6YC8GSNjo7S29sLwKRUkOKww46gpbmFpuZmAHbu3MF999zNCSeexFFHHQvAIYcdxqLFiwF4NjS3tnDIYYchAgBPRVdXFxMTBUZHRwDYm/F8VC2qCsATsTbGeB73338vf/r9b5l07z13E4VV1qxeBcC/oqqMjoxy3dVX8qff/5bE3/92EQ8/9BDr1q0FYG87tu+gr68PAJe5zGUuc5nLXOYyl/0vMwD/baZPn87LXvlq9vaWt7yDV73mddTX1wMwqb+/j8GBAQAmzZ03n1e/5nU0t7Twh9/+ml/84qcMDw3z8le+mje86a2sPOBAUkEKgH1ZvnwlL3v5q3jZK1/NvrR1dFAoFjjokEN52StfTeLIY44ltsq8BQt4zeveyPHHn8wZZz6XpUuXAbAvnudz8imn8bJXvppJZz//hdTV5VmybDkve+WrmfTKV7yGE044mRNPPhURAHgyGhubaO/oYNfOHYRhBMDemptbKJXLFItFAP4T9uzZw29/80u2bd8GQKIwMcF1115FU3MLqSAFgMtc5jKXucxlLnOZy/4/MgD/aS0trbzsla8mcfbzX0hdXR6ASdu2beOxRx5m/bo1/On3vyVxyT/+RrlSYceO7YyPjwOwL1OmTOVlr3w1hx5+BJf88x8MDQ7xqle/lik9U/j73y/iL3/+A+VyidNOP5P3fuBDvONd7+GlL3slJ5x4EocdfgTZXA6Axx57mKuuupzz//R7/vT73zLp9ltuJp/Lceftt/HLn/+UP/3+t9x/zz3s2bWb8//0e77/nW/yy5//lN/86ud8/atf5Fvf+BqPPvoIAPsSxxE333gDl138T/70+9+S+Off/8rERIHHHnmYP/3+t0z63ne/xde+8kWuu+ZqVAHgyZgxYybpVIYtmzcBsC/GCAD/CZl0hjOf8zxe9spXsy+vfu0becELX8Tpz3kOYgDAZS5zmctc5jKXucxl/98YgP+0oaFB/vT735L459//ysREAYBaO3dsZ+qUaQSBD0BnZxdBELB61WMA1BKBufPm88pXv5Yjjjqa66+5ij/9/rfs3LmDhoYGBgYG2LBhPQDbtm7lD7/7DYnVqx/DDwJmzJzJtOkzWL9uHaViEYA4tgwODBDHFoDE3LnzOOPM53LLzTdx6y03AZBYs2YVvX29vPTlr2L6jBkA/CtNjY2IQBRFVMMqo6MjAOwtCHyam1sAeDpEYPHSpQyPDLF580YA9qWhsZFSqcj4+DgA/07lSpnrr7+Gyy7+J3/+w2/50+9/y5aNG6jL13HJP/7Gb371c772lS9x8T/+jloACAIfz/MZHh4CwGUuc5nLXOYyl7nMZf/rDMB/UmtbBwD/ysDAAACzZs0BYPacuUxMjLNr1w4AEkHgc8qpp/H8F5xLLpejv6+PVDrNiaecxste+Wpe8crX0NHZSVNTEy975aup9cIXnUdraxu/+/Wv+PEPv89f/vgHhoYGAdib5xmOP+EkDj/yKP721wt57LGHSQUpACY99sjDXPLPv3PEEUfzmte9keUrVpIKUgA8nmo1pFKpAPB4wjBi8ZIlnPfil9LY2AjAUzFjxiw6OzpZ9dhjhGEEwN4y2QypVAobWwD+E8qlMsceexxvfPPb6ejoAGBSKkgxZcpUAAb6+7nj9ttoaWklm80yNjoKwPYd27nskn8yPj4OgMtc5jKXucxlLnOZy/7XGID/tFKxCMC/snHDBpYtX0G+ro4pU6ex6rHHCMMIgEQYRlxz9VX87a8X8vBDD3L9tddw2cX/5E+//y2JW26+kSgMueGG6/jT73/LpAv/8kfGxscZGhxkaGiQ0dERqmEVgFoisGDhIt70lnewaNFirConnXoar339m3nrO97F3HnzWbR4CW96y9t52StfzXPOOgcv8MlmMpz5nOfxvg9+mPe9/8O8+CUvp76hAYBJrW0dFCYmGB8fB+CJ3H3XHXi+z6tf83rmzp0HwJMRBD5HHHU0g0ODPPTA/QDsSzaTI53OMDY2BsCT4XmGww4/kpe98tVMOuzwIzGeB8CTkc5kKBYL9Pf3AVBXl+fs57+QV7329bz4ZS9n+YqV3HHHrWxYv45Fi5YQxzGVaoUpU6ayfds2du7cAYDLXOYyl7nMZS5zmcv+FxmA/6Sm5iYGBwcA2JeGhgYAEmtWryKXz/P8578IUB599GEAHk81rDI6OgJAYvacuZRKJTZv3gTApEw2RyaTpr9vDwB7y+ZyHH7Ekbzw3Jcwbdp0RISHHryfP/3+tyRWPfowlUqZPXt6ERGCIOD6a67iT7//LYmbbrqBUrHI6lWrePTRh7jg/D8yPjYGQCIIfFrb2ujv7wPgXwnDiOuuuQqrlhNPPoV8XR0A/8rhRxxNS0srN914PdWwCsC+ZLNZUqmA4eEhAP4VYzysVe6683b+9PvfMumuO28nCkNiGwPwRILAp66+gZ07tqMKABMTBf7597/yi5/9mG99/as8/NCDAEybPp2Fi5Zw+223sGH9WubNX8Ab3/xWDj/yKDzPAOAyl7nMZS5zmctc5rL/NQbgP6W+oYHA99m+bRsA+2I8A0CiGla5//776OzqZvPGjZSKRQCejI6ODhYtXsKq1Y9RKhYBmJTP5Qj8gGKpBMDeSsUid95xOxdd8BfuuvN2oigCoJa1CqoA7EsUx9x1521cfdWVqALApLa2DtLpFGvWrALgyejr62Pd2rXs3rmTYmECgCeydNlyDjr4YB647x62b9sGwOPp6OzEiMfwyDAA/4qIcNedd7Bh3ToAJm1Yt46f/PgHrF29GoAn0tjYRBSF7N61myDwAdiX6dOmc+ppZ3DPPXfx6CMPE8eWG2+4jltvuYnDDz+Ck04+DQCXucxlLnOZy1zmMpf9rzEA/yndXd1EcczOXTsB+FdSQYoli5ewaeN6Vh54ICeddCoiAPBEUkGKk087g5HREe696y4AarW2dyAiDA8NAfCftmDBQoaHh9m+bSsAT9bVV13BJZf8k4WLFnPIYYcBsC/Tpk/nuONP5L577+X2228DYFIqSNHY2ARAQgQWLFhENaywZ/cuAPbW0tpGEPgAJHbu3ME9d99JNawCMKkaVqlWqgD8K1OnTWdsdJT169cwd958MtkcAJOyuRwnnXIqBx1yKBdd8Bfuu/duACatXrWKKy6/jO3btwHgMpe5zGUuc5nLXOay/zUG4D9l4eLFrF61ijiOOPzIo1i6bDkdnZ0Evg9ArVSQ4pTTTufBB+7n73+7iOuvvZYVKw/gLW97F0cdfSz19fUA7K25tYWXveJVVCsVLvrLn6mGVerq6uns7MLzDCKwYMFCypUKQ0ODADwZS5Yt52WvfDWJJcuWAzAplUpx6uln8rJXvprEYYcfie95GOMBUKuxsYnpM2eyefNGXvzSV/CyV76avZ39/BdSV5dnybLlvOyVr6bWK1/9Ws58ztkcf/zJHH3McQDUmjlzFqef8RzuvON2brn5RgBqeYHPIYcexrvf+wFe+/o38bo3vJmZs2bR39fP4OAAAE9XKp3ikEMO45hjj2P+/AV0d3djPA+AvXV2dvLwQw8Sx5Y1q1cxOjpKJp3mjW96G69+7es5/fQzsbFlYKCf5StWcsyxx1HruBNOYPnyFSxfvpI5c+cB4DKXucxlLnOZy1zmsv8lBuA/Yfq06URhxL333Em1UuWeu+6gvb2D57/gRWRzWUZGRwFIZLMZ5s6fz/XXX8u6dWsBePjhB7nogj9jo5jGxkaM8QCYlApSHH/CSbzgBedy6603c9EFf6EaVgEolQrMnTeft7/jPbz3fR9m3rz57Ny5g/HxcQCejMceeZg//f63JB575GEAJlWrVa6+8nL+9PvfkrjrztsRIzQ1NwNQa8UBB7Jp40buvfsurrrqci76y5/50+9/S60//O43fOsbX+PnP/0xf/r9b6n1+9/+mm9+/ct8/atf5NZbbgIgIQKHHHIYRx51DJdfegn33Xs3AHsrFYtce81V/PPvf6Wuvp729g7Gx8e55eYbUQWAp6taqXL//fcwMNDPKaeeziGHHk5UDRkc6AdgUmdnJ1EUsXXrZgBU4b577+b73/sWF13wZwYGBujq7mblAQdy5FHHcNTRx7K3I444mp6eKdxx2y1s3LAeAJe5zGUuc5nLXOYyl/0vMQD/CR1dXdx26y2oAkAcW264/lquv+5arr3malY99igA5VKZzZs3s+qxRykViwBM2rZ9Gz/96Q+5/LJLGB0dASAIfE46+RTOfv4L2LFjO7/6xU/ZsH4dAJPi2HLbrTfzlz//gZHRER568AGuufIKAP4Vq8ruXbvYtm0bAImdO3dy6y03MTExjo0tI8PDlCtlABKjIyPcecftbN68CYBJ3d09qI257dabUIXhwSGqYRWAZyKTznDyKacRxRF//tPv2LlzBwBPZMuWzdx5x63cfOP1/OKnP2bXrp0A7IuqMjw0zNDgAABPJI4tq1et4pqrr2RkZJhbb72ZPXv2ADBpytTprHrsMVQBYJIqbNu+jcsu+Sc//uH3+fY3v8ZXv/wFvvKlz7Mv3/3ON9m2fRsALnOZy1zmMpe5zGUu+19jAP4T7r3nbkZHRwCodf999/LgA/cDkLjwgj9zz913AvBkhGHEdddew4UX/IUN69ehCgD70tfXx69+8VOuvOIyqmEVgH+lMDHBJRf/nR07tgOQ2Lp1C6seexRVWLNmFX/8w28ZGR4BILFz5w7uvON2SsUiAJN2797FLTffhCoAPFvKlTLXXH0VD9x/H6oA8GTcc9dd3H77bVTDKgCPZ/Wqx/jtb35Jb28vAE/GunVr+cmPfsD9990LQK3777uH3bt3AeAyl7nMZS5zmctc5jJXGQCXucxlLnOZy1zmMpe5zGUu298MgMtc5jKXucxlLnOZy1zmMpftbwbAZS5zmctc5jKXucxlLnOZy/Y3A+Ayl7nMZS5zmctc5jKXucxl+5sBcJnLXOYyl7nMZS5zmctc5rL9zQC4zGUuc5nLXOYyl7nMZS5z2f5mAFzmMpe5zGUuc5nLXOYyl7lsfzMALnOZy1zmMpe5zGUuc5nLXLa/GQCXucxlLnOZy1zmMpe5zGUu298MgMtc5jKXucxlLnOZy1zmMpftbwbAZS5zmctc5jKXucxlLnOZy/Y3A+Ayl7nMZS5zmctc5jKXucxl+5sBcJnLXOYyl7nMZS5zmctc5rL9zQC4zGUuc5nLXOYyl7nMZS5z2f5mAFzmMpe5zGUuc5nLXOYyl7lsfzMALnOZy1zmMpe5zGUuc5nLXLa/GYCnI5XK0NYxBZe57H8ZgMtc5jKXucxlLnOZy/Y3A/B0TJ0xH5e57H9dXX0TAC5zmctc5jKXucxlLtufDMBTUSkVuP/Oa3HZ/1e7d2wElEml4jhrH72X+++8lv9v1j56DwAuc5nLXOYyl7nMZS7bXwzAU1EqFXDZ/2eb1j/Klg2PAUIim6tn1rwlZHJ1lEoF/r8BcJnLXOYyl7nMZS5z2f5iAFzmsn3ZuX0jG9c+BEAilc6ycMkhtHdNA8BlLnOZy1zmMpe5zGUuezYZAJe57PH07trC+lX3AZAwnsf8RQfSPW02AC5zmctc5jKXucxlLnPZs8UAuMxlT6Rvzw5WP3IXqgpAYvbcZcyYvRAAl7nMZS5zmctc5jKXuezZYABc5rJ/ZWigl0cfuI04CgFITJ2xgDnzlwPgMpe5zGUuc5nLXOYylz1TBsBlLnsyxkYHefC+m6lUygAkuqbMYsGSgwFwmctc5jKXucxlLnOZy54JA+Aylz1Z5eIED9x1HaXiBACJto4pLFlxJAAuc5nLXOYyl7nMZS5z2dNlAFzmsqcijiPuv+s6JsZHAEg0tbSz4uDjAHCZy1zmMpf9t/IMuMxlLnPZfwrAk2UAXOayp+Ohe29ibGQQgERdfRMHH3EqAC5zmctc5rL/Rr4HmUBxmctc5rJ/NyMA8GQZAJe57Ol65IFbGR7cA0Aincly+DHPwfMDAFzmMpe5zGUuc5nLXOayJ8sAuMxlz8Sqh+9kz+5tACQ83+fwY84kk60DwGUuc5nLXPbfqH5KPS5zmctc9mwDeDoMgMtc9kxtWPMAO7auB2DSQYefRH1DCwAuc5nLXOay/zbznzOfl/7zpbjMZS5z2bOlbUEbAE+HAXCZy54NWzetYtP6RwCYtPygY2hp6wbAZS5zmctc5jKXucxlLnsiBsBlLnu27N6xibWP3gvApEXLDqV7yiwAXOYyl7nMZS5zmctc5rLHYwBc5rJn00D/Th554FYAJs2ev5zpsxcC4DKXucxlLnOZy1zmMpftiwFwmcuebWMjg9x7x9UATJo2YwFzF6wEwGUuc5nLXOYyl7nMZS7bmwFwmcv+HSrlErfd8E+iOAQg0dkzg8XLDwfAZS5zmctc5jKXucxlLqtlAFzmsn+nu26+nGJhDIBEc2snKw8+HgCXucxlLnOZy1zmMpe5bJIBcJnL/t0euPsGhgd7AUjk6xs59KjTAXCZy1zmMpe5zGUuc5nLEgbAZS77T1j18F3s3rkZgESQSnPUCWfj+T4ALnOZy1zmMpe5zGUuc5UBcJnL/lM2rXuYrRtXAzDp8GOeQzZXB4DLXOYyl7nMZS5zmctcZABc5rL/pB3b1rHusfsAmHTgYSfR2NwGgMtc5jKXucxlLnOZy1xjAFzmsv+0/r4dPPLArQBMWrryKNo7pgLgMpe5zGUuc5nLXOYylxgAl7lsfxgbGeTeO64GYNL8JQcxZdpcAFzmMpe5zGUuc5nLXOYKA+Ayl+0vlXKJ2274J1EcApCYOXcJs+YuBcBlLnOZy1zmMpe5zGUuMAAuc9n+dtfNl1MsjAGQ6Jk2h/lLDgHAZS5zmctc5jKXucxl/98ZAJe57L/BA3ffwFB/LwCJ9o4elh14DAAuc5nLXOYyl7nMZS77/8wAuMxl/y1WP3oXO7dtACDR0NjCwUeeih+kAHCZy1zmMpe57H+VxELdXVNI7WgA4MlCwVR8AJ6q1K566m+fhj+cAeCZkNBQf/cUco92IFUPgGeDKfvU3zGV3GPtSNUDwGWuMAAuc9l/ky0bH2PDmgcASKTTWQ496nRy+QYAXOYyl7nMZS77X+SNZAiGM6R21yFVD4BJmXUt1N8+jX1puGUGjdfNIrOhGYBJ/lAGU/IBeDyaivEmArzhDADPhAaW4sJ+UrvraLhtGlL2AHgqTNHHlHwAJtlMRGnBIKmdDWTXtgKwN6l6mEIAgMv+PzEALnPZf5s9u7fx6IO3AZAQEQ449ASaWjoAcJnLXOYyl7nsf02qL48GltKiATQVIxUPVQWgPHeIwgG9lJb04Y2liNoLjB+5nUR5zhCajog6igBMQqD+7imktzQCsC8axKhviVtLADxTcUOV6tQxTMknGMoB8FRkNrZQd/cU6m+fRq3smjYQJejPUX/7NPbWcMs0Gm+dTrAnD4DL/r8wAC5z2X+j0eEBHrznBgAmLVlxBB1d0wBwmctc5jKXuex/hVQ9gj11YIXcw5003DqdputnkV/VAQoYsNkQM5FCBKKGCgAJiQzqKTYVAzApai5T7Zogt6qd7PoWAILBLP5IBoB/l/KMUSqzRgg7CgDszR/KUnd/NxIZACYF/XlSe+oozxti/MjtTCovGMQrBpQWDTB64hbGj9xOrYmDd6G+Up0yTtRaAsBl/18YAJe57L9VYWKMe26/mlJxAoDEvEUHMnXGPABc5jKXucxlLvtfkN7egFQNhQN3M37kdsL2ApqKCTuKIACQCHbXYTMRUXMZgIRUDVgA2Ft51gg2FxHsyaOq+Hvy2EwEwONRVYgEgFpSMeTv76L+9mk8kfyDXXjDWerunkL97dOo1XDbNOru7iHYWUfdPT0QCQBmPCD/QCfqW6KWEgCTgh11EAlqFIC9BYNZqlPHKCztQ30LgMv+vzAALnPZf7NqpcSD997EUH8vAIkZsxcze/4yAFzmMpe5zGUu+28mRZ/0tkYq08cIW0tI2cMfzDFxQC9RcwksAAT9OYLhLOU5w2AUMx6AFUwxhaYsNh0BUEtTMWFHgbi+SjCUA08x4ynq7pxC/e3TyD3SiVQ8co90Un/7NBJNN82i6brZBL15ACZp2lJaPEDhwN2MH7mdvRUO3I0pe2gmYvzI7ezL2FHbGTl9I8PPW8/4ETvAVwBsfcjIqZsYPX4LNhMBkJCiTzCQI5wyTrVnHIC9VbsnsLmQ9JZGAFz2/4kBcJnL/tvZOGL1o3fRu3MzAInuKbNZuPQQ/CAFgMtc5jKXucxl/21QyK9twxQDgr489bdPo/6uqZiKR251G03XzqbugR68sRTZNW2U5w5TmToGQKqvjuZrZpPe3kDYWQABgL0VF/dTWLGHVF8dcWOFqK1IcUUf40dsp7hsD5qOKS7bw/iR20lUp4yhQUzcVAGgls1EJAAejwYWgKfCFALq7uum/vZp1Gq4eyqmHOCNZqi/fRr70nDrdPIPdJFb1U5mQwsALvv/wgC4zGX/Kzaue5gdW9cBkGht72HxssPJ5xsAcJnLXOYyl7nsv0lqdz02HWPrqpTnDFE4cDcApfmDTBy0G5uJ0CAms7GZwopeKtNGAciubcWUAsYP2cnEETsozRsE4PFI0UcKPmFrEQRsNgQBCT1QAHimCAWJDXG2CsDezHiAqgKwN5sPKazYw/gR2xk/cjuJ0sIBiIXiij2MHb2N8SO3kygcuBtT8QCYOHQnY0dvY/jMDSTKc4cAcNn/FwbAZS77X7J102q2bHgMgER9YzOLlx9OS1sXAC5zmctc5jKX/beIWkuUZw2jAMDeVJSwtUjhgD2Yqk/jdTPJPdaOVDz8/iw2FxG2lgB4Iund9WgmRgMLwCSpeIg1ADxTJvIQK6R2NlB/+zRq1d86jcZbZlD3QDdYANib+hYEAKTok3+ok7iuSrVzAoAEkZB9tB2Awspe1LcA/CtS9mi4cQZNV8whtaseAJf9LzAALnPZ/5qd2zewYfUDACRSmSyLlh1G95RZALjMZS5zmctc9t/ApiMQECtkNrSQv68brxSQ2dBC/r5uTMUHIBH059DAUp4zjCAQWGwmwpR9/LE0APsisRD05wnbCwDsTX2L9S0AtbBCelsDUvUA+Fe8sTTqKYUDdzN+5HZqVaeNgUDUVgIDAE9EMxETB+0inDJOdm0r9bdNo/G6WTTdOJPUQJ7K7BE0FQPwZAjCJACX/a8wAC5z2f+iPb3bWPXwXVQqZQASs+cvZ+bcpQC4zGUuc5nLXPbfQo1SnjtE4aDdxNmQ8twhCgftxqYjACQWvIEsYoX8/d34QxlMIUX97dNouGU69XdMJdiTB2BvQX8eiQRTDKi/fSr1t09jUnZdK1L2yD/YRf3t00ikdjQgFY/6u6aQe6iTunt7IBIAnog3lsamYmwuBKCWVA0IxI1lAP4VDMQNVSpTxygtHCRsLyBWiPMhlamjpNc103zVHBpumEF6SxOqCsDjsZmI0eO3MHzGBqo94wC47H+BAXCZy/5XDQ/2svqRO5kYGwYgMWXaHBYsOYQgSAPgMpe5zGUuc9l/u6A/jyCMHbmD8SO3E7WUsfkq40duZ+SUTQyftpGwswBALVPyyaxrweYiKjNGKBywh/EjtzMpbqwQN5cJOycozxli/MjtjJ6whZEzNjJ6whaGn7ee8SO3g68APB4JDcFQlqi9gHoKQC1vPI1NRdh0DMC/YiZSZNY303DLdBpvnIFXSBG2FyjPGqa4pJ/RUzYzftAuBCH/aDv5xzoAcNn/NwbAZS77X1YYH2XVw3cx2L8bgERbRw+Llh9OfUMTAC5zmctc5jKX7U9ihcyGFvL3deOVAjIbWsjf142p+IgKQW+e4pJ+bC4EYG/+aIZgIAdAItiTp/7uKTTeOBN/PE3YWgQDNhsCkJCqhzeWJmotY7MRwWAOgKcjGMwhVY+wowjA3rxSgKYsNh0BsC/eeIr8g13k7+8itauOuKnK+BE7GDl5M4UDevEmUuTWtWHKPgBhV4HR47cwfuguws4CuUfbCfbkAXDZ/xcGwGUu+18XhhXWPHo3u3dsAiBR39DEouWH09bRA4DLXOYyl7nMZfuLGqU8d4jCQbuJsyHluUMUDtqNTUf4vXn8kSzZNW3U3z6NhD+UwRRS1N8+jUTdXT3U3dtNsKsOgLCzwPihOyks68OmYuKGCgC1Ur15iISwc4KouYw3msZMBAA8FapKeksTUXOZsLUIQC0JDYQGTccgALC39KYmco90YIoBphwQDOTJrG+h7u4p1N8+jYQppJCqIf9AN/W3TyNRf8c0MhtayD3WQXpzE3UPdhHsyQPgsv8PDIDLXPb/xab1j7Bl4yoAEkGQZsGSQ5gybQ4ALnOZy1zmMpf9pxEKYgVNxwDsLeoqMH7ITsYP3874kdtJRC1lbL7K+JHbSYycuonh0zcS9kwAUEsQMArAJFUltbOBuKVM1FDB5kI0iMlubgbgqcjsaMQrBpTmDwCwN6l6mMjDZiIA9qUyc4TCQbsZP3I7tcaP2I7NhpiKh2YiovoqNl9l4uBdjB+5nUmjx29h+HnrGT5tI2FnAQCX/X9gAFzmsv9Pdm5bz/pV9xHHEQCJmXOXMnv+cgBc5jKXucxlLvtP8oop1FPiuioAe1NRbD4EAwBPhVfyIRYAamW3NeMVA0pzBwFIVGaMEvTWkd7RAMCTYYoB6Y3NlGeOEDdUAdibVwqQyBDnqwDsCwZsOgZgEhbyD3bhD2coHNiLehYCS9Raou6eHvzRDAAu+//MALjMZf/f9O3ZweqH76JUnAAg0T1lFouWHU4qkwXAZS5zmctc5rL/BG8sjc1VsZkIALGCVDwAnikzngILZiIFQMIfypLe0ExpwSBxQxWARNheJJFd1UbQnwPgiRAJuYc7iNqLlGcNA7AvZiwFQJyvAvBkmLJP3d1TMMWA8SN3EDWWAUhUpo5RnTFK3V095B7qxJR9AJ6IlD0abpxB0xVzSO2qB8Bl/wsMgMtc9v/R6MgAqx65k5HhfgASLW2dLF5+OA1NrQC4zGUuc5nLXPbvpKp4o2mqU8cBSKgoGAXgmbL1IQgAJPzhDPlHOijPG6QydQyAWqWFA2hgqbtnCtnVbWABYG9S9ai7twfbUKW4uB8EAKTkk7+/i+zaVryxFFL2SO2qR31LXFcF4ImoKunNTdTfOZWos8j4kduxmQiAWpWpY0wcsgt/JE3TdbNouGEGuUfbSfXWYYo+ALUEYRKAy/5XGACXuez/q3KxwOqH76K/dzsAiXy+gUXLDqe9cyoALnOZy1zmMpf9u6T66iAbU+2cAMCmI8aP3g5A/v5uTMUH4OkqzRtk9PitVLvHyWxtIru2jcLyPVSmjwGwN5uJGD9sJzYbkt3QQvPVc8mtagNgkj+coe7eHqpTxyku7gcBgIRmIwoH9IKBhlun03zNHILhLGHnBDYfArAvKKR219F4+3S8UsDYkdspzxoGAYBJEhsAElFzmbFjt1FYvgdjDZnNzWTXtuGVUgDUspmI0eO3MHzGBqo94wC47H+BAXCZy/4/szZm3er72bF1PQAJ3/eZv/ggps6YD4DLXOYyl7nMZc82iQVTDCguGAABAATUt1RmjhK1FrG5KlFzGYBaNoiJmypgAeCJqGfJrWpHRRk/bAdRcxmAx2NzIeNH7KDaPcHEQbsoLh4AIJHe2khqVz0TB++iOnUMgL0hUJo3SGXmCDYbUVw0QGFJHwD7YsYDcg93ADB2xHaKi/vRVAzAJIkF9ZWwsQTAJAQq08YYOWkzIydvYvywHYStRQBc9v+BAXCZy1ywddMqNqx5EGstAIkZsxcxZ8EKBAHAZS5zmctc5rJni3pKZdYI6lsA9lZaMMjY0duxuRCAWsVlfRSW9oEBgCeiqZji0n4q00dBAOBfsZmIiYN3EbYXAZhUmTFKcUk/mooBeCLFxQOMnLyJ8twhMACwL7Y+pLiij2r3BBgA2Jt6yvjhOyjPHwJgX2w2wmYiAFz2/4UBcJnLXLFn91ZWPXwHxcI4AImunpksWn4YmWweAJe5zGUuc5nLXOYyl/2nGQCXucwlo8MDrH74ToYHewFINLd2smj5YTQ2twHgMpe5zGUuc5nLXOay/yQD4DKXuaZcLrLq4bvYtWMjAIlcrp7Fyw+no2saAC5zmctc5jKXucxlLvtPMQAuc5mrNq9/lARAwhiPeYsOZNrMBQC4zGUuc5nLXOYyl7nsP8EAuMxlLtu1YyOrHr6LcrkIQGL6rIXMXXgAnucD4DKXucxlLnOZy1zmsn8nA+Ayl7ksMTzYy+qH72R0eACARGf3dJasPIKGxlYAXOYyl7nMZS5zmctc9u9iAFzmMpdNKhbGWfXwHezZvRWARH1DC0tWHkHP1DkAuMxlLnOZy1zmMpe57N/BALjMZS6rZa1lw5oH2bLxMQASxnjMmreUeYsOJBWkAXCZy1zmMpe5zGUuc9mzyQC4zGUu25ed2zaw6qE7KBbGAUh0dE1j8cojaW7pBMBlLnOZy1zmMpe5zGXPFgPgMpe57PEMD/Xx2EN3MNC/E4BEvq6BxSsOZ+r0+QC47N+hsbkNl/1/AOAyl7nMZS5z2b9iAFzmMpc9kWqlxNpH72Xb5jUATJoxZxELlhxCOpMFwGXPpukzF7J05VG47H/Z1OnzAHCZy1zmMpe57F8xAC5zmcuejO1b1rLm0bupVEoAJNo6eli64iha2rsBcNmzqVQcZ/P6h3HZ/6JyqQiAy1z2v0JVIRIAXOYyl/0nGQCXucxlT9Zg/24ee/B2hgd7AUhkcnkWLT2UmXMWIwCAy54toyODuOx/EYDLXPbvllvVTv6BLqTqAVArvbmJurt6MOMBAP+Kqfg03DqdhptnUH/7NJ6s+lun0XjDTPzBDAD/zTIbm6m/cwqm5AOwt+yaNnKPdiBVDwCXuezfzQC4zGUueypKxQlWPXwXO7etB2DSlOnzWHLAUTQ0tgDgMpe5zGUu+3eT0OD35QiGsniFAIBaEgn+eBpEAPhXBEGsEHaPM37kdmpVZozgFQJKS/oYP3I7tSqzRjAVD280A8B/M1MM8Iey+INZAGqpKv5glvS2BoK+HAAuc9m/mwFwmctc9nRs2biK9avuo1IpA5BobGpjyYqj6Jk2BwCXucxlLnPZv1MwmMMrBVR7xomaywDUEgQ1Cr4FYFKwO48UfQCeLeopcWsJgP9Wqoo3lqYyc5Tq1HEAagWjWbyJFGFXgerUcQD+0yQW0lsaya5ppf7OqTRdNwt/NA3Av5vEQnpLI/kHO8k90gHA/zf+SIbs2lZyD3fQeP1M8g92AfCfZgBc5jKXPV19e3bw2IO3Mdi3C4CE8Qyz5i5lwZJDyGTrAHCZy1zmsv9PsJB/qJPUznoA9gd/Tw5NxYQdReru66b+9mnUSu1oQCoe+fu6qb99GomGm2dQd38PDXdPRYo+AP8OmfXNtFwyn+ZL5pFd1QbApMz6ZloumU+i+fK5pHbWA9Bw6zRaLpnP3povn0tqZz0Ak1SV7Jo2mq6cQ8sl82m+fC75B7sgEgBqEQlY8Iop8JTy7GEApOohJR+ARGp3HRilNHcQgEmmEJAASOTv76Llkvk8kdwjHQDsLf9gJ82XziP3WDsAe8MK/nAGfyiHKfgQGgCeDVL1yD/USfOVc2m5ZD7Nl86j8aaZ1N82jWAwB1bwh7KkeusxoQfA/zemGOAP5vDHMpiyj1gB4D/NALjMZS57JkrFCdY8dg9bNj6GqgUg0dbRw9KVR9DRORUAl7nMZS77X5d7tJ2G26bRdM1sUjvrAdgfpOgTDOSo9owTthYpLumncOBuxo/czqTq1DE0HVM4aDfjR24nMXbsVoafs57R47eguQiAf4fyvGHGD98JvpLaVY+ZCABIlOcNM3LyZqpTxhk5dRPVKeMAjB29naHnrWPkhC3YbEi1Z5yh565j+MwNVKeMA5BQVeoe7CazuYnyvCGGnruOicN2EQxlqb9nChILAJMym5toum42dff1YAoB+fu7qb99Go03zqDxjml4o2mIBL8/B0Du0U7qb59GouG2aTTcMp2G26fhD2cAKBzYS2n+IOpbxg/fydDz1pEYes46Jg7ajc1E+MNZJBYA9iYiaMoCsDcNLIUD9jB+5HZKCwfBUwCeKSn6NNw+Db8vR2FFL0PPXcfY8VvRVIw/kkEmfDSwFA7sJa6rAPD/UbVnnPEjtzN29DbihgoA+4MBcJnLXPZs2LltA48+cDtjo4MAJNKZHPMWH8Ts+cvwgwAAl7nMZS77XxU3Vgjbith8CMD+kt5dj4hQnjkKgE1H2FQEwBMhElQVgH83TUVErSVM6JHe1gjAJETRIEZ9C0AtfIsaBYEEQK3UnjqCPXnKs0YozxkGgbC1SHFxP/5ohvTWJgAmCYJ6lolDdzJ60mbGj9xOwuZC4lyIzYekdzYgoWH8sB2MH7mdSRMH7UZTMVFDhaixDEACoyCgqQiABAaqPeNMHL4TAbzxNAC1Civ3MPScdZTmDQLwn6Cq5Na0YSoexQN7qXZPgEBcV2X8kJ1EzWX8sQwALvtPMgAuc5nLni1jo4M8+sDt7Ny2AYBJ3VNms+yAY2jrnAqAy1zmMpf9L6pMG6O0YJDyrBEwCsB/mlQ90tsbkYJP/sFOJDRIxaPhluk03DqN+tunkUjtaEAqHvn7uqm/fRoNt02j6drZ1N87BSwA7EtqRwP1t0+jVmZDCxJ65B7ppP72adTKbGgBCwB7i+uqRM1lUrvqMRMBAM9UakcDeEp1yhgAk8L2AnEuJNhZh8QCwL+iqRiA1I4GKnNHiBuqAOyNwIIBgH8lqq9QnjmCKQQA7G/BUI5UX56wtUQCYJL6lsrsYaTiAeCy/yQD4DKXuezZpGrZsvEx1jx2D6XiBACJXL6eBYsPYt7CA8jk8gC4zGUuc5nLno709gaIBc3ERG1FNLDgKagQdhYYP3I7ierUMTQdUzhoN+NHbmfioN1oKiZuKoMBgH2pTh1j/Mjt1CrPHUKDmOKyPYwfuZ1a5blDYABgbwhUZo5gQo/0tkYAnglTCAhGsthsRFxXBWCSeoqtq+IXUnhjaQCejPSmJmy+Snn6CADPhsr0UapTxgGoZSZSZDa0YIo+AP8JqV31YIVq9zgAewvbC1TmDgPgsv8kA+Ayl7ns32GwbxePPXgbe3ZvA2BSR/d0lh9wDN1TZgPgMpe5zGUueyqk7JHaVU95/hDqWQASGljwLQD/baqdE4RtRVK76jETAQBPl1cKkMhgcyEIANSK6ytIbDBjKQD+FaoGrxhQnjNMensjqgrA05Vd3YY/mgZgkpQ9Gm+YSfOVc2m8eTqZDc2Y0APgmSIScg910HzFXFoumU/zFXPJPdQBkQCQ8MZS4Cm2vgrA3tRToqYyALX8vhyNN86k5dJ5NF86j/o7p2LKPgCTTMmn7u4emq+YS8sl82m5dB6N18wivaURgEm5R9tpuHkG+Yc68UbTNNw8nZZL59F82Tzq7umBSACQ0JB/oJPGm2aQ2dCM35ej8bqZNF8yj+bL55J7uANVBaCW35ej8caZtFw6j0TjjTPx+3IA/DcyAC5zmcv+XSqVMhvWPMCaR+9mfGwEgESQSjN7/jIWLz+M+oYWAFzmMpe5zGVPRmZLM2FHgbC9AMD/AgQqM0cwkSG7uRmAp0sqHlgAeDxYwav6APwrmooprNhDXF/FH8pS91A3KAA8VaYQ4A9lAailmZjRE7YwfPoGikv6wSgAz5REhoZ7puJNpBk/ajtDz1vHxMG7SfXXUX/PFCQWTMXHVH1sEGNTMQBPhikE5Fa3U5o/yNCZ65k4ZBf+aJrM5iYAEqbsU3/nVLxSwPgROxh63jqGzlxPdeo4ubVtBIM5ABJxYwUTGUwhRf7hTiozRxk6cz0TB+8iGMqSW98KAEaJG0JMxccfypJb10ZxST/Dz1lPcfEA6V0NZLY3AjApvaOB+oe6qUwdZfj0jSSiphL19/eQ2lkPwH8bA+Ayl7ns322wfzePPHAL2zavIbYxAInm1i6WHXg002YuwA8CAFzmMpe5zGWPJxjIIVYozR8EoJaEBiJDakcD9bdPI5Ha0YBUPPL3dVN/+zTy93UjFQ+AfSEUJDYAPNvCtiJha4mgtw5vLAXAf5JUPPL3dVN/+zQmmUIKQUAAoDptjGBPjsyGFgBqxfkqALUkNDTcPIOWS+aTaLp+Ft54CoDHo74FAYBnKr2tEcqGwkG7iRoqAITtBYqL+vFH0wS9dagqKAA8FRIZJg7ZRbVnHAyEnQXiuireUAaAhFQNEnqErSWipjIAGAh7xgEwoykAEpVpY9hUhKl4TBy0m8r0UTAQdhaIGst4o2kA1FOqU8awfoxEHuOH7yDsKoCB6pQx4kyIN5oBICFVj/SmJsrTRyjPHUZ9S6KwYg9RfYX0liZUFYD/JgbAZS5z2X+CWsv2LWt59P5bGejfCUBCRJg+ayErDjyO7imzAXCZy1zmMpftS1xfobiwHwQAahELmokpLRxg/MjtJKpTx7D5iInDdzB+5HYKB+3GNlSJcyEAezPWQCykdjRQf/s0amU2tCChR+6RTupvn0atzIYWsADweBCozBxBYiGztQmA/yRNxxQO2s34kduZZPNVACZFTSVsNia1sx4JDQBSNZjQA6MA1NLAMnbsVoaet47E2LFbsbkIgP+EoC+HbaxiMxEAk2xdFRD80TSCAPBUxY0VbC4EYJLNRogKAIm4ocrIqRspLu0DgEjwhzKkdjRALEgsANSKGyvYXAjAJE1ZJDIA1IraC6hvAUhoYMG3SGgASPjDGUzVI+woADAJAc1GeKUAr5gC4L+JAXCZy1z2nzQxPsLaR+9l/eoHKBbHAUhkcnlmz1/G8oOOob1zKgAuc5nLXOayWjYdgwGAvWkmZvzwHXgjGbyxFADeeBqMRT0FwGYixo7aTnXKOAB7M4UUCJTmDzJ+5HZqlecOoUFMcdkexo/cTq3y3CEwAPBEwrYiYWuJoLcObyIFwFNlcyEYBeDxYBSbigF4KtRTbF0VUUGsAUBUQAWAfyVqrBC1FgH4dzMVH1MKSO2sp+WS+dRquHkGEhpMOcBmIjQVI7FBQgPAs0kiQ25NG81Xz6HlqrnU3zMFfzAHKggCwLNNEAAS3ngKUwpouHU6LZfMp1ZqZz0SGUxkAPhvYgBc5jKX7Q99vdt45P5b2b5lLXEUApCob2hh/uKDWLz8MJpaOgBwmctc5jKXPVlh5wSZDS0QCVLysHUhAE+GlD1EwNZXAXi2IVCZOYLEQmp7AwBPlc1G2FSMKQaoKgC1TCFAPcXmQwCeqrCtSHXqGDYdAfBUVbsniLMRAP8J1SnjDD1vHfsyceBuADRtkdhgKj4Ae5NY8EcyADwVUvRpuHU6qa0NlOYOMXTGeoZP20hxRS94CsB/gk3FjB27laHnrWNvw6dvIGqsAPDfxAC4zGUu21+isMq2zWt46L6b2LVjE6oKQKK5tYslK45g3qIDqatvAsBlLnOZy1z2r0QtZTQTUX9vD14pIGqoAPBk+GNp4kxEnK8C8O8QthUJW0sEe/JQ8QB4KmwmIm6oYko+3kQKgEmqiimkiDMhUWMZgKeqMn2U0rwhACapKAmAfyVqKaGpGIB/J5uO0FSMKQaoKgCPJ2wtQiQE/TkA9uaNZEhtbwDgqchubcKUPQoH9lKePQwGAP6TbC4CwIynAfhfYQBc5jKX7W+lYoHN6x/h4ftupq93OwCTOrqmseKgY5k1dynpTA4Al7nMZS77byWxUH/HVJqvmEtqRz0A/0ml+UMQG1Ahai8C8K9ILHhjaaL2AuopAP8OCFRmjiAIXtkH4KmqzBhBYiG9vRGASak9dfjjKarTx9DAAvBMSdlHAJuNAPhvErYV8YoBqaEcAJNQyD3aTqovD0C1ZxybCwn21CFVD4BJEhkym5qJ2osAPBWmFKC+EudCAPbFVDywAPDvELWU0CAm6MuBAsAkfyhL/qEuAP7bGACXucxl/y0mxkdYv/p+Hn3wdgb7dwOQQISeaXNYcdCxzJizhLr6JgBc9lS1tbXxile9hmXLliMCAM/UjBkzeeOb38pRRx+L5xkAno4zn/M8jj/hJDzPAPBMeZ5BBABc5rJnAxaC3jqIDN5oGiwATPImUnijaSQyBH15AP6T/MEsXiEAC/m7ekjtrkNVAXg8/nAWiQ3VKeMAPBuoekgkqCoAk8L2ImFbEYB9ITKIFVBQVQBqhe1FKrNGyWxrIrOhGSz4/Tlyj3YQNVaoTB8F4NkgoYcqIAAwCSugQNUD4MmSqgcqEAsAT0SqHqhALADsrTxnmKiuSu7+LlK761BVTNkn/0AXUvGpthcAsJmI8vwhTMmn/u4evLEUAN5Yivy93WgQU+2cAEBVAYFIUFUAEqoKkaAKWACI66tIxSOzqRksEAnpbY3kHuoECwpk17Thj6dRVUAgElQVgISqQiSoAhYAVEEQpOoBMIlIIDagoKoA2ExEef4Qqb468g90Yco+qkpqdx35Rzqo9owBsDcigdiAgqoC8J9kAFzmMpf9txkd7mfNo3ez+pG7GR3uByARpNJMnT6XFQcfx6Jlh9HRORUxBoD96agTziax4uDjaO+ciiAA/DepVCrkcnkOPfwImlpaAHimZs2aTUNDE4XCBHFsAdjb0qXLOPW00xEBgH259567WLJ0Gee95OWkghQAT0QE5s6bTypIAbC3BQsX8+a3voOXvfLVTHrFK1/Da1//JmbPngPA40kFKZ531vOZNn06AC7bH4464WwSyw44mta2bkAA+E9ruHUaLZfNJ72rHlEhu7GFlsvmk7+/C4BEXFclbqygniVqLQHwn6CqZDY1k3+ok/KsEUZO2UzUXiR/fzfNV88h90gH3kgaVQWgVrCrjqitSNRQAeBfSW9vILu2lUR6WyPEAsCk/P1dNNw5lfSWJppumIWUPQAmVWaNoGkLwKSGW6fRcsl8mm6YiSkFpHbV03rpApovn0tqZz0Ak4rzBygtGCSzuZnmy+ZRf28PUXuRiUN2ob4FoJZUPPL3dVN/+zQmmUIKgFrp7Q1k1rXgD2XxhzOkdzSAp8T1FQASDbdOI7uuFYkMDXdOJbO+GYDHI2WPxutn0nLJfPKPdmAqHg23Taflkvnk7+8CYJI/mqbpyjm0XDKf/KMdmIpHw23TablkPg23TgNgkvqWiYN3EXUUyT3USeulC2i8biYYKK7YAwIAicrUMcYP34EaaLhlBi2XzKf+jqnY5gqFFXtAQMoeTTfMwh/OkNpTR9MNs5CyR6Lphlmk9tQRjGRpvHEmUvYozR2kPGeY1M56Wi6bT/NVc0ntaKC4vI9qzwTZta2YYoD1Y5pumIU/nCG1p46mG2YhZY9E0w2zSO2pIxjJ0njjTPy+LI03zcAUAjKbmmm4dRoA/miapmtn44+lSe2qp/G26QAkKlPHmFi5G28sTeO1s2i5dD7ZVW0UFw0QthcBmJS/v4uWS+bTcsU8/LE0qV31tF66gObL55LaWQ/Af4IBcJnLXPbfamhgN48+eDvrVt/P+NgwAJNa2rqYt/ggDjzkRKbPXkS+rgGA/amuvon5iw9i5WEn0NjcBsB/m749fQwPDgHwr2TSGc58zvN42Stfzb6sOOBA4jhk8dJlvOyVr2Zvr3z1azn9zOdwwIEHc+Zzz0YEAPbW19fHxg3rmT59BitWHgDAUUcfw8te+Wr25dWvfSMveOG5vODc8/A8A8DePM/n+muu4k+//y2Ja6+5krp8nilTp3HKqWfwsle+mn15+atew+IlSzju+BNJBSlEAMBl+0NDUysLlx3KyoOPo76hBYD/pLGjtzP0vHXsrXBgLwAJ9ZTxI3YwfOYGKjNGAfh384czNNw2HX8gy9gx2yjPGwKjFFbsYfzobdiGkPTWRhpvmUHLZfNpvHYWwe46ALyxFF4xRWneEACPRz0LoQGgMmWMuL5KansDwUAOm42IcyEAicKBvQw9bx2J0RO3oJkYgElha5HxQ3YCMGns6O0MPW8dexs+cwPVKeMATEKgPGuYkVM2Mfy89QyfsYHCij2obwHYm6ZjCgftZvzI7Uyy+SoAtSpTx4gbKuQf7KTh1ukE/TmipjJxXRWAxNjR2xl63jomlecNA/B4NBMzeuIWhp63jr0VDuwFYFLUWGHk9I0MPW8dexs7ejsAtTQVU1ixh5HTNzL0vHUMP2cDhZW9qG8BqBU1lxk/cjvDz1nP0PPWMXLaJooLBkAAQDMxoyduYeh560iMnrgFzcQkRk/cwtDz1pEYPXELmolBoLRwgJHTNzL0vHUMP2c940duJ2oqU1jZy/Bz1zN+xA5sPmL0xC0MPW8didETt6CZmMToiVsYet46EqMnbiHqKDFy+kaGnreOxNjR2wGIGiuMnL6RoeetIzF29HYAJoVdBcaO38rwc9cz/Lz1jJ60hbCjAECtwoG9DD1vHXsbPnMD1SnjAPwnGACXucxl/+36e7fz8H03s3bVvQz19wIwKZPLM23GfFYecgILlx5KW8cUEAFgf8nl6lm68iiWHXg0La1dgADw38DaGIAno1wpc/311/C3i87nT7//LbUefeghPONx04038Kff/5Z9+f1vf803vvYVvvrlL3DZJf9EFQD2ZdWqRxkbHaW/vw+Ae+66iysuv4Q//+G3/On3v6XW3XfdQbVaYdVjjxLHFoAnw6oyODjATTdcx1VXXMaffv9bbrv5Jupzddxy0w386fe/5Y9/+A3f/sbX+MPvfkM1rKIKAC7bn/L1jSw/6BgWrziCxuZ2AFxCLNj6kDgbUXdfN8HuOgoH72bi0F3YbATApKixwtgR2xk9eTOleYOEnQUmDt9J2D0BgD+YozR/AJuJANiX6pRxRk/cQtRWAgAD1Z5xCgf2EjWXKS7fgwYWgP82mrKEXQU0iAGYFLWUKM8aBmASAmFXgfHDdxI3VKhOHaOwYg8IALjMZc82A+Ayl7nsf8XAnp2sfvQuHr7vZnZt30i1WgZgUmt7NwuWHMyBh5zItJkLaGpuR0QA2B8aGltZuOwwDjz8JNq7pgECwL9TW1sbIgBQCxGMEYaHBgGolQpSTJ82HREAqFUulUkATAoCnwMOOog9e3p59JGHAHg6Fi1ewite9RqmTJnK9m1b+d3vfs2WLZsBqIZVhgeHUAWAfYmiCIB9SaVSnHr6mbzsla8mcerpZ5JKpQCohlVOPe0MXvO6N3LyqacRxhHHHHcCL3vlq3n969/M6974Jtra2gBw2X+T5pYOlq48ggMOPYHW9h4AXGDzIeOH7KQ6dYyJg3ZTWjyAzUQAPB6biSgtHGTikF3EdVUAEpVZI0QtZQCeqqilxNjR24iaywD8NyrPGKG4uB/1FIBJxcUDRM1lAPZmcyGjx21l4oBeNBUD4DKX/TsYAJe5zGX/a8bHhtm84VEevPsGNq17mLHRIQAmZfN1TJ+1kCUrj+SQI09n4bJDmTJ9Lvn6RgD+k0Qgm80xf9GBLD/oGJqa2wH4dznt9DN53RvezMte+WpqPf8FL6KuvoEly5bzsle+mlqveu3reekrXsU5z38RnmcAeCJLl62gqbGJu+++kzCMANiXVJCiqbkJgH0RETo6OzngoIPxfZ/CxAQAz4ZqtcrVV17On37/WxJXX3k51WoVgITv+wwODPDLn/+UX/3ip/zp978lsWPHDgqFAgMDAwC47L8NCLl8AwuXHsLSlUfS0NgCgMtc5jKX/S8xAC5zmcv+V4Vhld07N/PI/bew6qE76e/djqoFYFKQStHa1s3MOUtYefDxHHzEKcxffBAdXdMIUmkA/t1AAKhvaGbJyiNZefDxNDS1AvBsGxsbp1qt8qff/5ZaV195OWG1ysMPPciffv9bat1+2y0UCgXuuvMO4tgCsC+pIEV3dw8HHHgwmzZtYsaMmbzsla/m8bz+jW/mla9+PdOmTwdgbza2xFHMpo0bCMOIurp68rkcALVEYPq06YgAwLMpk81w7PEn0tLSCoDL/pc0Nrez7MBjWHbA0eTrmgBwmctc5rL/BQbAZS5z2f8Hw0N7WLf6fh64+wa2bV7D6HA/1sYA1EpncrR3TmXeogM59KjTWXnI8cxbdCBTps+lubWTdCYLwL9Tvr6BZQcczaKlh9LQ2ALAv1tdXT2qlvHxcQD2pqpYGwPweBoaG3jhuefh+x4333QDN994Axdd8Gf+9Pvfsrf1a9aQzqTp39MLwL6MjAwRRREAiYaGBl71mtfzile+hpe98tVMeuWrX8d5L3sFz3/heQA8GalUilNPP5OXvfLVJE49/UxSqRQAtQI/YOHCRTzv7HPI19UB4LL/NQ1Nraw85DjmLT6IXL4BAJe5zGUu+29mAFzmMpf9f1IqTrB9y1oeffB27rn9atY8dg+7dmxiYnwEgL3l6xrp6JrGzDlLWLz8cA4+4lSOOPa5LD/oOOYtOpAp0+fS3NpJQ2ML9Q1N5OsayOXqyWTzpNMZgiANwFMBAkBLezfLDjyG5QcdS0t7NwD/Lq1tbVhr6dvTC8DT0dzSSiqVYtVjjzE6OkI1rFKtVAGotXzFShYsWsSF5/+Fv/z5j2zftg2Af8XaGON53H//vfzp979l0r333E0UVlmzehUA/4qNLX179nDxP//Gn37/WxKXXvxPHnn4IbZt3QrA3tavXUNhYgIAl/2v6uicygGHnsDSlUfR3NIBgMtc5jKX/TcyAC5zmcv+v4rCKoN9u9i8/hEeuvcm7rn9Ktatuo89u7dSLhUA2BfjedQ3NNHRNY2Zc5awePnhLDvwGJYfdBwrDzmBAw47kYMOP5mDjzyNQ48+HYBnor6hmYVLDmXZgUcD8O8wa9ZsQDj+hJNobGwE4KlobGzi+BNOJAhS2DgCYG+dnZ285rVvYMqUqfz5j79j584dAPynrVmzij/+4beMDI8AkBgaGuTmG2+gq7sbEQD4d2hq6eCoE87myTr06NNxWa2jTjgbgGeisbmNxSsOp6mlHQCXucxlLvtvYwBc5jKXuaJaKdO/Zwcb1jzIfXdey713XMPax+5h2+Y19O/ZwcT4CNbGAPyniUBDYyue5wPwbJo+YwatrW1cd+3VrFm9ite87o0873lnkwpSAPwrqSDFc557FkODg4yOjgCwLyJCQ2MDURRirQXgP6m5uYVzXvBCXvbKV7Mvr3rt63nBC1/EMcedCMB/gyBI47JaAM8GENKpLAAuc5nLXPbfxgC4zGUuc1WlXGSgbxfbt6xl3ar7eOjem7jjpku5945reOyhO9i8/hF6d21hdGSAifERSsUJKpUyURyiKADPFlAScRwB8GwRgYMOPpSt27ayZvVjPProI1x37dXMX7CI17/xzfT0TAHg8YjAaaefQalY5Ibrr8NaBeDxxLFl586dqAJAYt78BcycOQuAf6fh4SGuu+ZqLvnH3/jT739LYnx0DM8Y/vT73/KLn/2Yr33lS9x84/UAJHw/QBRGx8cBcNn/B6AkFAXAZS5zmcv+2xgAl7nMZS7bl0q5yMhQH7t2bGLj2od49IHbeOjem7j/ruu49/aruOvmy7n9hou586ZLufvWKwF4JtRaendt4767rgPg2XTU0cfhGcPVV1yOKgA8+sjD3H33ndQ3NHDkUUcDsC8icNrpzyGMIi6++G+EYRUA43kcd8IJvOyVr6bWqaefSSaT5bDDj+Rlr3w1iVe++rWcfc7zOfucFzB37jwA/p3Gx8c5+/kv5BWveg35ujoAJtXV1dPZ2QnAju3buP++e2hvb8cPfMbHRgFYt3Y1F//jbwA8HeNjwzx030247JkAeDpQBcDGMbu3b2KgbxcALnOZy1z238YAuMxlLnPZMxHbmDCsAPB0RFHIts1ruOf2q9m49kHKxQIAz5ZFixcTBAF//9uFVMMqAJPuvONWdu7YQTqdAWBfjjzqWLZt28qVV1xGHFsAEjaOuePW2/jn3//Kn37/WyZdfeXllMsl7rrzdv70+9+S+P1vf803vvYVvvudb7Jhw3oAnojnGQ47/Ehe9spXM+mww4/EeB4A/0oQ+Ph+wOjIKIWJCQBaWlp52StfzStf9RrOe+krmDlzFjdcfx07d+5gydJljIyMkM/naWlpZe3aNYyOjgLwdMRRyMTYCC57JgCeCgUAwrDK5g2PcvftV7Fpw6NYGwPgMpe5zGX/bQyAy1zmMpftD6Ds2bWV++68lu1b1hKGFQCeLZ7xWLx4KeNj49xw/bXEsQWgVhhG3HH7rdx11x0A7Mttt97MqsceBSCRTqdJpQIAqmGVwsQEAM8WYzysVe6683b+9PvfMumuO28nCkNiGwPwROrqGkinU2zfvhWAxNDQIH/6/W/58Y++z/e/8022bNkMwNJly+ns7Obmm29gy5YtHHXU0bz29W9i2bLliACAy/4XYC27d2zivruuZdf2jcRRBIDLXOYyl/23MgAuc5nLXPafgAJAHEfs3LaBe26/mg1rHyQKqwA826xaVq9+lB07tgPweDZt2siG9esAeDJ838f3AgD+HUSEu+68gw3r1gEwacO6dfzkxz9g7erVADyR1tZWxsfGGRkZQQQA9mXJsuUcfsRRXHvNlWzfto1Sscgll/yT1asf45TTz+Dggw8DwGX/zcKwyrbNa7j79qvYtP4R4igCwGUuc5nL/tsZAJe5zGUu+3cDxapl2+bV3H3rlWzZ+BjVShmAfxdVRRUA/pu1tLYRBD4AiZ07d3DP3XdSDasATKqGVaqVKgD/ytRp09m1cwe9u3axaPFSfM8DYFJjYyPPO+v5TJs6jT/+4bds2LAegEl33n4b1197Df39fQC47L8NKHEcs3n9I9xz+1Vs37KWKKwC4DKXucxl/ysMgMtc5jKX/Tupjdm9cwv333kN27esw9oYgP0tm8tx6GGHM3v2HLq6uuju7sbzDABPlecZ8rkcAJlsDs8YAJ5NqXSKQw45jGOOPY758xfQ3d2N8TwAagWBT119PQ8//BDlSpm1a1YxPDJMe1sH737vB3jlq1/LscedyPj4GIXCBAcffAjHHHsctU448SQWLlzEgQcfQnd3D37gA+Cy/wZxHLFz2wbuu+Madu3YhFoLgMueDokMXjEA4MnKbGqm7v5uTMkH4MkKBnM03DYdfzgDwLNNQkP9nVPIrmsFCwDPhrp7u2m4Yxr+aBqAp8MfydBwxzRSfXkAnk2m7NNw6zSyq9uQWACYVH/nVOoe6MKUfQCeLlP2qb97CsFgFoBnIrOpmfq7pmDKPgC1TCmg/vZpZNa1IJEB4P8TA+Ayl7nMZf8Oqkrfnh3ce/s1bFr3MJVKGYD/hHw+B8ATKRWLPPzwg3T3TOFF572EQw49nEKhwOjYGABPhWd8DjviKN71nvfxkpe+HN8PqFTKADxbqpUq999/DwMD/Zxy6ukccujhRNWQwYF+ACbNnDWHwf4BhoYGAYhjy403XMd3v/N1Lrvkn5SKRabPmMGBBx7MkUcdw1FHH8veDjv8SJqam7numqvZvXsXURgB4LL9ARQAVaV31xbuuf1qtmxcRRhWAHDZM5V7uJP8A50QCQBYIQGQwAKRAJCozBhBCj75+7sAMEUfIgHgiaS2NuANp0lta0RCA8CzSQOLRIb01kb84QwAz5QUffzRDGohzkYA7I1IyN/fhT+UBWBfEMWMBfi761BVAJ4tNh0BglhBPQVgkqZiZCJAjZJ/uJP0tkawAPBU2ExE2Fokf383/lAWgKdDVQn25PEHswS9eQAkNAAkEMWUPbxSgHoWgP9PDIDLXOYylz2b1Fr27N7Gg/fcwPpV91ENKwD8J8WxZcvmTQA8kXKpzG233sw///E3Nqxfx6UX/5NSsQjA41FVdu/excaNGwFIVMMq1193DT//2U/YuGEDN954HRs3bADgX1FVhoeGGRocAOCJxLFl9apVXHP1lYyMDHPrrTezZ88eACZ1dHTw6KMPAVArji0bNqznogvP54ff/w7f+uZX+eqXv8BXvvR59uUnP/oBo6MjALhsf7LWsnvnZu6/61o2rn2IOAoBcNmzQX1LcWkf/mCO+runQiT4o2kab5pB/e3TSDTePJOma2dTf/tU6m+fRt1dU/EqPqbi03DrNBpvnEn+wS6IBIB98cZSBAM54sYKpaV9aGABSJhCgFQ9AJ4NNhsStZYBeDKC3XXU3TmF+tunsbf6e6Zgyj4mMtTd20P97dPYW+NNM0jvbKDuvm78oSwA+4KBqK2IiADwbEEAFE3FAJhCgDeWAiAhApqKKc0dIrOxmaZrZxP05wB4KsKOAgDpLY0APB3BUA5/NE21a4LKjFGk7NFw63Tqb5uGVDwAEjYXggDA/ycGwGUuc5nLng2333gJt93wT26/6RI2rHmAYmEcgP3hwgv+zC033wTAk7F92zYuuvB89uzpBeCJ7Nmzh/P/8kf27OkFoFapWOTCC/7M/ffdC8CTsXrVY/z2N7+kt7cXgCdj3bq1/ORHP+D+++4FoNZtt97C+Pg4AC77X3b7TZdw2w3/5I6bLmXTuocpl4oA/H+gqqS3NNF43UxaLp1Houma2WQ2NKOqAPwnxHVVos4iXiHAlHwwCgqlJX2MH7md6pQxbF1I4cBeCit6GT9yOyMnb2bsmG1UeyYYOXkzhYN3g68A7E1VyWxowVR8JDLU3TWV+tunkWi4bRqNt8yg/s6pSNEH4JlCAODJCrsmKK7oY/yI7YwfuZ1JE4ftAKPE9VXGjtrO+JHb2ZfRk7Yw9Lx1jJyyiailBMBTZco+EhkAamGFBECtzLoW6m+fxiRTSJHa0UDDbdNovGUG9XdOI+jPATDJ5kKKy/cgKnijaQCeCpsLiRsqhF0FAPbmD2Wpv3MKphgAsC+p3jrUU8pzh0DAKwWYqkfYNYGmYwD+PzMALnOZy1z2bFC1ALjMZS57tqm1APx/lF/VQXZ9C6VFgww9Zz0jJ28maiqTW9tGdkMrAP8ppdlDFJbvwdaHAOwNFA1ismtbCfbkAfAmUmTWN5Nb0wYWAPYltaeORGXqGKPHb2H8yO1MKs8cASvYbIggAPwrZiIACwC1VBUQbDYCoJaqEvTnwAJALQRsNgQBgEmpnfV4hRSlOUOobwF4Npmyj1QMAKnt9TTeMJP626dRq+m6WTTcPB0pewBMqsweobCil/EjtjN+5HZsvkp16hhjR21n+PQNjJy6kbC9CECtsLXE+CG7iOurpLY3AJCQ0JB/qJP626fxeOrumgqxIb2lifrbp1Gr4bZp1N89haA/T/3dU5CiD0AtKfoEvXmqU8aJG6oAmLEU6lmi9iIA++KNpvEHsgD8rzMALnOZy1zmMpe5zGX7ixkPSO2qpzJ9lGrPOAjYTERhxR7ifEhqZz0SGgD+E2w+JOwsALAvWANA1Foi/0gH/nAGfyBHXF+luLgfDADsTcoeudXt2ExEadEACAAkVJXU9gaq3eNMHLwLmwsB+FeyG1pounEW9bdPo1bD7dMx4wH+UIb626dRq/GWmdTdNYX626chFQPAEyES0luaiJrKVHvGAXg8puhDJABMkoohf38X9bdPI5F7pBMJPTIbWqi/fRqJ+tum0njzTLyRNIKgnqVw4G7Gj9zOJJsNsQ1VNBMD4I2nqLu7h7q7p5B/qIv6O6ZRf/s0TCFFakcD9bdPo5Y/lMEUUtTfPo1JudVt1D3QTf7hTrJrWwHQwFJc3E/hwN2MH7mdxPgR27F1VQoH7mb8yO3sTTMRXtmncEAvY0dtZ/j0DQw9bx2jx29BcxEAtdK765HYI+wsAJAIhrNIZMg+2kH97dPI39eNVDxSOxqov30aDbdNo+GOadTf20Owqw6A/2UGwGUuc5nLXOYyl7lsf/HHMkhoMIUAFAASmoqJGyp4FR+vFADwn2DKPv5wBoCExIbcI53U3z6N1I4GJBIk9Iiby4BgigH+WJryvCGk4mEKAQC1UMitbseEHoUVe7CZCIBJwWgWExtKCwZBACDhFQMkMgDsi82HKErhwN2MH7mdSYWDdqPpmKitxPiR26lVXNELaUtl5iiatgA8Hm8iRWZrE6biE3ZNUH/XVOpvn8a+NNw6ncYbZ5J/pBMUABKatpSW9DN++HbGj9xOcdkeNIgpzx1i/MjtJDQdE7WUiBsrADwZcX2V0tJ+Jg7ZyfiR20nEjWWq08cYPW4L40dup1ZlxigaxBQO3M34kdtJjB21neHTNzD8nPWUFgwCkNDAYjMRAAkE1LN4o2kAakksmIkUNh1hsyEAT0SqHuntjZiKR2ZdC1iQ0OCNpyktGmT8yO0kCgftRtMx1aljjB+5nbGjtjN8+gaGT99I2DMBwP8yA+Ayl7nMZS5zmctctr/E9RU0FeONp5HIAFDLBjE2FQPw7yAVQ/6BTupvn0ai/rap1N85lWB3HQDqW4rL9zB+5HZKCwcIeybIP9xJ9tEO1LdkNjfjj2bIrG+l4bZpNNwxDX84A8Ck7LpW/OEMKkr+kQ7qb59GrfyDXUjFI/9gF/W3TyPRcNs0Gm6eQf2t0zCFAIAni1CQ2BDnqwDsTVEQBeCJpDc3kV3dRnX6GOWZIxQO6GX8iO2MH7mdWoUDdwOggcXmQogFgEk2HYMBgMeDQALgyYpzIRpYAKTq4ffnkJIHQEKKPsHuPABxNkIQiAWARO6RDjLrW1BVAJ5IXFclGMgBUMsbT2NKPlFzCYB/JbO5CURR3xK1FcGAP5pBPaXSPQ6ACwyAy1zmMpe5zGUuc9n+EjdUGTl5M2PHbUUDC0BCqh7eWJq4oYrNRAD8O2jaUlzaT+HA3YwfuZ24uUJcVyXsnMBMpFCj2FQMQLV7gtLcIQrL9zBx6E5Gj98CKFFTmfEjtzNy6iZGTt5E1FwGIJHZ0Iw/nKFwUC/qWeL6KuNHbmdSZcYIUjUUl/cxfuR2Jk0ctBubioi6Cth8CMCT5Y9nQIWooQLA06GqeIUUmosoTx8FwKYjEACYJFWP/EOdRK0lRk7aRGnBIPgKwL5I6AGgvgVgEkYBeLIkNOQf6qT+9mkk6u+YilcMMIWA+junUX/7NBpvnU7dA92kdtSDUYgFU/UAkLJH0J8jvb0BfyINwBOJWkp442mk6gEwyR/MAhB2FAF4ImYiwO/PUZ41DAIAiWBPnnDKOJqKAXCBAXCZy1zmMpe5zGUu+2+T2l2HREJ59jAA/04aWGwmAiCBKBiQiodXCqi7Ywr1t0+j4bZpNF43i8yGZtS3ADwRqXjYupDxw3Zi0xEAezNFH6ygQQzA3tSzADwVwWAOsUJ2Uwv+cAaApyq/rh1/MIuiIArA3nKPdFB/1xTKc4YpLuoHAwBPRCoeAJqJAJgU56sAPFkaWIqL+ykcuJuJg3chCNVpY4wfs53xI7eTGDl1E8NnbqA6dRxbVwVRTCEFQKovj6n4VOaMENdXAXgicV0VjJLqzQOQQCHoy2NzIVFzCYDHg0J2YyvhtHHixgoACW8iBUB5+ggArjAALnOZy1zmMpe5zGX/TaTok97SSGnhIFFLCYD9wR9LE+eqSGQoLelj4qDdaCYiaqoAsDdTCJCqB0BC0zHVrgkQANgXE3poKsamYwCeKSn6+P1ZynOGKS4YoO7eHurvnIIp+wA8Gakd9QQ76qlOHQfg8UhoMFUPDSwATwaRgIAaBUBiAWsAeKo0sNhMRHpHAxIL5Vkj5B5tp/6WaZiJAIBJNh2jnuKPpVBVUjsbsPmQypQxAP4VBKpd46S2NyCxAOAPZfFH00RtRdRTAB5Pamc9eJby9BEAJsV1VYpL+kEA4F/xR9P4wxkA/pcZAJe5zGUuc5nLXOay/xam7FP3cBeVWaNUpo4BsD9ILJhCirCzAJ4CkFAgtauO+tunkTCFFP5QhobbptF4ywzq7u2BSADYF38oQ/3t05iU2lWPVDzy93VTf/s0JuXv60YqHlL2AXiyMluasJmI8qxhopYSEwftxhvL0HDTdIJddQA8EX8oS2ZDC8WlfdhcFYDHIwg2HRE1lgFISNUjvaURIgFgb145QD2LpiwAhAaJBICnQ4o+6S2NVLsmiOuqaDpGRLD5ECIhtaMBVcWmI2w2xBtLk95TjzeapjJjFPUtAE9GtauAxB6pHQ0ApLc2ooGlPGMUgCdCylJcOAACAJOC3XXU3TmF+tunUSt/XzdS8UjtaKD+9mkkGm6bRv0d06i/ewrBnjwA/6sMgMtc5jKXucxlLnPZfwNT9sk/2EW1Z5zK9FEA9hd/JIsAUWsJgFphzwSFFb2MH7Edm68StZQZO2o7w6dvYPzI7eArAHtDoNo9wfiR20lMHLYDm7LEbWU0GyEWxo/cTqJw0G5sfRVbFwLwZKR3NBCMZCms3IP6FoCopURpcT8m9shuaIVYANgXfyhLdnUbpWV9hJ0FABLeaJq6u6ZQf/s0avlDGUwhRf3t05jUeMt08o90UvdgNxIZAGr5YxlsNsSmIwAEAQM2FQPwVNU91oEpBfhDWepvn0ZqRwOmEFB/xzQab51B3UOd5Ne1AxC1lvFHM2TXtBE3VShPHwHgydJUTNg5QWZzM6md9aT68lS7J7C5EIAnUu0ooL4FoFbYNUFxWR/jh29n/MjtTCoctBtNx1SnjjF+5HYSY0dtZ/j0DQyftpGwswDA/yoD4DKXucxlLnOZy1y2v0nVI/9QJ2Fbkcr0UQD2p2B3nmr3BAAoAExSUWw+BAGAJ8NmIkZP2EJxST8ACW8kg1fyCVuKANSymYixo7dTnjWMKQR4YykAHo8/mMEfzjB+8C5sLgRgUmXqGNWuCSQWiA0Ae/PGUqR21TFxyC7C1hIAk+LGCsXlfYwfvp3xI7czKWopY/NVxo/czqSRkzYz9Lx1TBy8C/UtAJMkNEjRJ2wvApBQBURR3wLwVBWW9TFx6E7Gjt7G+JHbqU4dw+arjB+5ndHjtzD0nPUUFwwAELYXUECqhtKCARAAeCrKs0ZAIP9wJzYdU549DMDThYDNh2AAwBUGwGUuc5nLXOYyl7lsfyIS8vd3ETdVKM8dAmBSamc93lgKgP8UEKK2EpUZI0jFw4Q+uUc6yd/Xjan4ADwb0rvqUaOE7QUAHo8/nMUfzAGwN0EI+nJI5FFY2oemYgD2Vp4zRHnuEKRiAPYWN1QpLu1HUzEACSn7ACRsNgQDAE9XMJjDxIaovQhAwqt6UDUgAPBU2UxE2F4EYG8SGvzhDP5gBgApe2BBU5Y4HwKQ8EfTBLvrAPhXNIiJ6stIZAg7CthMBIDLng4D4DKXucxlLnOZy1y2v6gq+Uc6IB1TnD8AwCSJhdSuegQBQGKh/o6pNF8xl9SOegCeLVL1yD/QCZGgRjHjKdQoAOpbCst7KRy0m7iugqZjAJ6JYDBLalc9YdcEcUMVgMfjlXxMZADYl7C9RNhZAAGAfYkaK1SmjQHwZJnQA+DZktrRQNRQIQGQkLKPiGDzVQCeKokM/kiGzKZm8g93ktrRgD+WoeHW6WTXt4JA1FLGFANyq9uJGyuYikdubSsACW8kg1cKAHgiWMg/2EUwkKcydYz01ibq7u1Gqh4ALnuqDIDLXOYyl7nMZS5z2f6S3tWAmUhRmTGKP5bGH02T8Icz5B7twEwE2FQMgDeRwhtNI5Eh6MsD8GxIb2uk8YYZCMLEIbuYOHQnwUCO+rumYOurjJy4mbihis1EjB+5g7CtCEDCBpaorgLAk+WNpsk/1EVUX6W4aACAJyKhQco+AHtTFEQB+G/mD2UwhYDynCEAJplCAEaxKQtAQioe+fu6qb99GpNMIQVArfS2BpqumkP97VMJevPEdVXCjgJRQ5mxo7dRXNxP1FRGQo/8g13E9VUmDt1FZeYoqe0NZNe2AuCNpSEGgMdjCgENt07HG0szcdhOCgf0Uli+h2AgR+P1M8muaYVIAHDZk2UAXOYyl7nMZS5zmcv2F1P0CUay1N82jYabZzCp4dbppLc1QmCxmQiAuK5K3FhBPUvUWgLg2RC2Fgm7ihSW9YGA+pbxw3YQNVaov30aTdfNouG2aeQe7iC7tpVacVMZUSG7ppX6u6dQd08PqV31AOxNVUlvbqL+rilE+SoTB+9CfQtAwlR9TCEAYJIpBAS9daR31RP05wB4KiQW0lsaSfXW4Y+m8QazSCwAPB1SMWBBVSESAP4VVSWzoYWwZwKJDHX39JDZ0EywJ096RwNxOsJmQgASmo4pHLSb8SO3M8nmqwDUqk4ZZ+LwHQyfvoHxI3dQnj2MpmIk9JCKB4BUPeru7cZmQyYO3IX6luL8AardE2Q3tFB3fzfeSBpBANgbFrKr22i4dRphe5GxY7YSNZYBqE4dY/S4rcRNFbIbWmi+ai71t0wju6YVfygDkQDgssdjAFzmMpe5zGUuc5nL9pfyvGGGnreOxzN29HYAEuop40fsYPjMDVRmjALwbLD5kMKKXtS3ACQwUFo0wMjJmygtHEQDS6o/T2ZzE4nM5may61vIrmslkV3fijeRorikn2rPOACTUEjtrqPp5pmkdtdTOKiXicN2oqkYgETYVkTKPk3Xz6LlkvlMarp+FqYYEDVWiOurAEwy5QCAJ6KeUp06jlQ96u7rIf9YB+opcX0FgKfKH8/QcPs0Wi6bT2pPHRpYAJ5Idn0rmo4pzR0kbC9SWLEHfyRL/d1T8CfSVGeMggDAEyESACapp4StJTAAkDDlABREBVMIqLu3m7CrQGFlLxgAQKCwspfyzBFSu+sJRrJIaACYJJEhs66FphtnIbFh9IStlBYNgAGASTYbMX74DiYO3UXcWMYfzZBd30rDHdOpe7AbUwgAeLpMOQDg/xsD4DKXucxlLnOZy1zmsieivqUybZTxQ3cyctJmhk/fSGL49A0MPXc9Q89bx6SREzdjcyEACVMIyD3aTt3dPZhiwNiR2xk/cjthaxGAWpXpowyfuZ6h561jb8PPXc/44TuwmQiASapK1FJCgxiAx6O+pTJ9lLHDdxB2Fiis2EPcUAXgidggptozgU1HACTCtiJjR2+nuLSPsKtAYcUeAB5PqrcOE3oUlu8BAQBNxRSX9lHtnmD8wF1Upo4BkLCZiHDKBDYdATCpsGIPE4fsAuCJxOmQyowxvPEU2fUtFA7opTx7GAQAJiFQXNLP+CE7ieureENZJBa8kTT5B7vIP9RJ3Fhh5PjNFJf2oakYgMdT7SgwdvR2Rk/eTGneIIUle5g4eBc2HwJQC4GoqUzYUQRgX1TBpmPiuioA/98YAJe5zGUu+28Fgsv+FwG4zGUus/mQ4tJ+Jg7bRXnOMBpYAJ4txeV9FFbuQT0F4F+xuZDxQ3cSdhQA+FeKy/ooLRwAAYBalZmjjB+yE5uJAHg81a4Jikv6QQBgks1ETBy8i7CrAMCkyrQxigsGQABgUlxfBQGAJ1KeP0R5zhBhe5HCyj3YbATA4wk7Cowev4Xxo7ejnhI3VSis7GXioN2EnQUwAPBk2UxEaeEglZmjAOxL1FBh/PAdRI1lAPZFsxHjR22nPGsYgP9vDIDLXOYyl/03yubqWXnI8bjsf1EmmwPAZS5zmctc5rInwwC4zGUuc9l/m4nxYXZt34DL/pcVC2MAuMxlLnOZy1z2rxgAl7nMZS77b7N5w2O47P8DAJe5zGUuc5nL/hUD4DKXucxlLnOZy1zmMpe5zGX7mwFwmctc5jKXucxlLnOZy1zmsv3NALjMZS5zmctc5jKXucxlLnPZ/mYAXOYyl7nMZS5zmctc5jKXuWx/MwAuc5nLXOYyl7nMZS5zmctctr8ZAJe5zGUuc5nLXOYyl7nMZS7b3wyAy1zmMpe5zGUuc5nLXOYyl+1vBsBlLnOZy1zmMpe5zGUuc5nL9jcD4DKXucxlLnOZy1zmsv2JSDDjAQC1co90kHuoE1P2AfhPkdAAsC9EAhYAnm0SC/lHOsg/0Ikp+QA8FbmHO6i7awqmEADwbPLGUtTfPpX09gZUFYAnktpVT/1t0/AHsgC47PEYAJe5zGUuc5nLXOYyl/07YYXcox3U3z6NfWm4fTqNt8wkt7YNgEkm9Ej31uGNpwH4V3KPttN09Wxyj7UjVQ+ApyP3WAeNN82g/vZpJBpunUbjjTMJ+vJkNzfTdN1s6m+fxt4abptG03WzSO2qB2Bv3liKuvu78YczAOxNPaW4aAB/PEPdfT1gASCBhczGZkwxAGBfTOThF1JgACAhsWAKAQC1JDJ4xQCAx4MFFAA0ZTFVHyKDiADwRFDwCylEDQAuezwGwGUuc5nLXOYyl7nMZf9OGKW0cIDCyl7Gj9zO3sLucTCWascEALVsEBPXVwD4V4pL+5k4eBfeWJrGG2cQ7KoD4KnCgnqW8SO3k7C5CDVK1FQmzoUAlJb0MX7kdmoVl/ZBJAR78kgsANSKG6pErSXq7pxC7pEOsEJ2TSv1t09jUt3dUyASTMmn/s5p1N8+jUTjzTPJrmoj/2AXRALAvigKogAk1FPyD3XRcPMM6m+fxqSGW6fTcOMMMhubAdiX1PYGGq+bRWpnPQAqiqZiAJ4MFUVTEQAuezwGwGUuc5nLXOYyl7ns/yNVJbu2laarZ9N8yTyaL5tH/e1TMYUAgP8U9S02FwKwLyBgFIBnImopM37EDkoLB8mtbsMfzgDwVAgCQEJCgxlPUZ0yhqZiAJ4IBsKOAuopAHsrTx8hbqqQ6q3DFH3Kc4cprOxl/MjtJCozRpDIozxnmPEjtjN+5HYSo8dvYfh56xk/cjv4CsCTJRZsXZXxI7czKW6ooOmYatcEAPsSDOYgZQk7CwDU8kbT+ANZABKm6JNd04Yp+wC47MkyAC5zmctc5jKXucxl/x/VPdRNalc9E4fuYvh565k4dBdeMUX93VMwxQCA/4/CjgIIpLc1AvB0eRMpRKDaPQHAM4VAZcYoYfcEBEpqRz02FwJgigGZ9S2EnROUZw0DYCo+AE+VP5rGlHwAHo+KgqcA7E2qHv5YBmKh7u4p5O/rxisFZDa0UH/7NBrumkr9PVNI72gAwIQe6e0NpHbVA+CyJ8sAuMxlLnOZy1zmMpf9f2MKAcFAjrixQtRUBiBsL1CeN4Qp+mS2NgLwn2ImArAA8O9mSj6m6hEM5JCiD8DT4Q1niJrL2FwIQEJiQ+6RTupvn0at3COdSGwAqGVKPmY8ACBR7RmnsLQPvz8LCABYyK5pJW6qUFi+BwQSqa0N1N3fjVQ9AGpJxZC/v4v626eR8IcySMUjf2839XdMo/6OqZhCAMBTFQxlsemIsWO2MX7kdgoH7SbOhpTnDjF+5HaGT93I8BkbqEwdAyChniVqLQLgsifLALjMZS5zmctc5jKX/X+DAKJ4o2mk4gGQiJpK4IGUfAD+U/IPddF04yzqb59GrdSOBgCeTf5QFqyByBD05wB4OvyJNNWecQAmqWcpLtvD+JHbqVVctgf1LAC1NLDkH+2k7t5upOoBkPDG00StRYiE/INd4CuFFb0gAJCozBlGKh71d05Fij4AkzRtKS3pZ/zw7YwfuR2bjdB0TOHg3QyfvoHRE7dg8yEAT4Wq4g9mKS0YRH0LwL5I0SfYnQfAZU+XAXCZy1zmMpe5zGUu+//G5kJGj93K+BE70HQMQC0xAPCfYCo+puoRthcZP3I7tcozR4iaS9h0DMAzhULQlyfOVYlaS6T76gF4OmwQE2dCAJ4u9S3l+YMEgznq7utGYsEfS2OqHjYb0XDnVFK76kntqqP5qjkkmq6fReMNM8nf2wMC3kRAbmMrALVsOgYDphBgSgEAz1R2azP+QI7smjbqb59GIn9fN14pILOhhfrbp5FovGMadff1kFvbBoDLng4D4DKXucxlLnOZy1z2/5EGFpuJAJjkD+RQlGrXBAD/CVIxSGSIGsoA1KrMGmH8sJ3YTATAM+WPZvDH0kSdBard45ixAG8sBcBTFXZNkF3XApEA8HSFrSWqXROYkg+hIdhdR9xQRX1LZcYYUUeRwso9jB6/leHTNjJy4mZGT9jCxGE7GT9sB1FLGZuKANgXfySDVA2m6pPZ2Iwp+wA8HeXpI0wctJvxw7czfuR2EoWDdhNnQ8pzhxg/cjuJkZM2M/zc9RQXDADgsqfDALjMZS5zmctc5jKX/X9HJGQ2NpOozBqh2jUBwH9C0J8Hhbi5DMDeTCFAqh4Az1RqawNqlMqUMcL2IniQ2tEAwFMVNZfBh9y6VgASEhtyj3RSf/s0auUe6URiA8C+VGaOUJ43BAb84SxRaxGAuK5CYfkeql0TmLEU2TWtmLIPQDCQwxQCxg/fQWnBIAD74g9kkdhgUxEaWBpvnEH+gU6IBICnAgM2XwXgiXhjKbAA4LKnywC4zGUuc5nLXOYyl/1/ll3fQssV88iubiNqK1GZMQrAf4Ip+aS3NiKxIftIB/W3T6NWw23TaLxlBg23T8MUAwCeLm8sRaqvjrBrgrihiqZiws4J0jsb8MZSADxV1e5xgr46vIkUAOpZisv2UO0ZJzF+5HYShQN3U5k+iqZjUACoFTVWqEwbIxjKgmeJ6isAZDY303jjDII9eUjHpLc1kVnXAkB6WyONt04n2JMHYF+k6hGMZLHZCIDK9FEqs0ZJ9daT6qsD4Knyx9I03jiThtumUX/7NPL3deOVAjIbWqi/fRoNt02j4fbp1N0zBawA4LKnwwC4zGUuc5nLXOYyl/1/Vpo3xNBz1zF+9Hak4tFwy3T8oSwA/242G1GaP0RpwSDjR21n/Mjt1Cos34N6lrCtgM2GADxdmQ0t4CmlOcMAJCpTxgDIrm1DVQF4KuJsCBa8wQwAk2xdFX80DUAizoXgKXV395Bd1wrA3lSV1NZGwpYSCAAk4roqYWcBAPVjqjNGAUjEdVXCzgIA+5LqzQMQNZYBSJTmDlKZNkpcXwEEgKdKYkN55gjjR26ncNBu4mxIee4Q40duZ+Kg3dhsSHXKOBgFwGVPhwFwmctc5jKXucxlLvv/DoGoqczEIbvQdEz2sTYkFgD+3apTxyjPHgZgb6YYgIWouQwCAE9Hamc9qf48pXmD2FwIQCJuqFKZNkbQlye3rg2ApwIDgmCqHgCTooYKphTgjaUAyGxoIb25kbCzSNhZQFUBqJUayOMXUkStJQCeKVUltbueas8EeApAQj2luLQfDSxSNcT1FQCeTQogCoDLni4D4DKXucxlLnOZy1z2/5Ep+0hoAJikviWuq+IX0vjDWQD2J6+QQkSw9VUAng5TDMiua6XaUaAydQyAWuW5Q9j6KpktTQR78gA8EYkNuTVtZNe2klvVhin7aDoGYJKmYmwuJLOlmdxj7QSDWUaP28rEQbuImsqICABS9UjtriMYyJFd3UacjogaywAkTMnH5iIAnqr0nnoQKM8aBmBvpuQjsSHOhwD8O0lsMIUUAC57sgyAy1zmMpe5zGUuc9n/N/5glsYbZ1B/+zQkNADUQoFYANifvJE0cSoizoYAPFVEQv7BTmwmorisDwQAaqlvKSztQwXyD3UR9OcAeDzqWcrTRgn25EntqidsKlPtmQCgVnXKOMHuPDYTMX7YTmw2AqCWBjGaismubsMbTaP5EAQAJBaIDTYTAvCveGMppOoBILEQ7KqjNHcI9S0Ae/OHsqhviVpKADyezLoWvLEUAE+HihK2FYlaSgC47MkyAC5zmctc5jKXucxl/9+Yig/WoNkI9S0ACSLBTARoKiaurwIgZY+GG2fQdM1s/KEsAP8JEhq8sTSaj9DAAvBUEAl19/WgnjJxyC7UtwDsS9RSorS4H4mEunumkFnfgqoCsC82H1JaPEBxWR/jh29HfQtArbC1SNhZJL2tEVMIANgbAmFrieLSPggscb4KQEKKPhIaosYKAP9KamcDXskHwB/IEfZMELWUANibxEJqVz1hZwGbiQB4PBIbRAWAJ2KKAUF/Dm8kjYkMAIm4oUrhgF5sJgLAZU+WAXCZy1zmMpe5zGUu+/8m7CgQNZXxJlIEQzkATDGg7sFuvEKK0oJBbC4EIBjM4RUDTNknGMwC8J8QDObwSgFhaxGAp0IiQ/0DPWgmYuKQnahvAXgilaljlOYPAUpuTRvN180hs6EFLADsLWwrUp45AgYAaqX68uQf7KQ6dQybjmm4fRpBXx6AfZGqByoATEr11YFvCduLAPwrogJWAAg7C1S7JgDYl6C3DhTKM0cAeCL+eBoJPQCeiGYjJPSoe6gLrBDXVwBw2dNlAFzmMpe5zGUuc5nL/r9R3zJx8C7C1iL5e7ppuWQ+jTfMxCsETBywm8rUMQASUWsJm4uwqZiosQLAv4M3kqb+zqkkco+2k32kHU3FVLsmAHiyTNmn7r5uwrYihRV7wADAk1GeO0RheR82FRPnQuKmMgBPBpEgkaHurikE2xsoLh4gbCtSWNmL+pb6u3uov3Uawe48WACY5I9kIBbUUwDMREBqewPlOcNoKgYgIQhYAQCjEBuIBFXFjKVIbW9AVQF4PFL0yWxspjJ7BJsLAdibWIHIIGUPUwjIrG1FQgOABpbyrGHC9iIAk1SUas84hWV9TBy6k7ihCkBCyh4SGgBMxQcFAJc9EQPgMpe5zGUuc5nLXPb/kaZiCiv2MHL6Roaet47h56xn9LithF0FACbZTMTo8VsYOW0jYUcBgH+HuKnC+GE7iOsrpLc0IZGhtGAQmwsBeDK8sRTZNa0Ulu+hPGsYgKeqOnWM0ZM2M374dsK2IhgA+FdM1UesELYXKRy4G03FANhcyPgROwiby/jDGfIPdZFd24bEAkDClHwwik1HSNGn7sEuqjPGqEwdA2ASsWCKAQDVjgKm6NNyxTxaL11AMJgFAREBYF+IhPxjHVRmjlCZOgbA3qpdExAamm6YSfM1czDFAFtfRX0LQJwLKc8dRlMxAISCRAaARLVnnKixAsAkiQyZ9S00XjOL3GPt4Ck2sAC47PEYAJe5zGUuc5nLXOYyl/0nIVCZNUJ53hBjx2+lMnUMgL1ZPyZurKBBDMCkuKFKYeUebDYC4OlS34IBgFrqWeK6KgB7K88dYmLFHorL+kAAYJLNRIwfuZ3S8n4mjthJadEA6ikAieLiAUqLBxCE3MYWJg7aTXnWMACTpOQTtZSImsoAVHvGGTljI0PPW0di+DkbKC7rA2Bv1o+JGysEo1kqc4apTB8DYF+qPeOMnLGRoeetIzH8nPUUlu8BAYC9GTVoOsLWVQHYF1sXUlo8wPhRO4gaK5QWDGJzIQAuezwGwGUuc5nLXOYyl7nMZf9pcS6ktGAQm40A2Jfi8j4mDtqNegrAf0phxR4KK/cAsDcEqlPHUN8CsDcEyjNGiBrLANTSVEx55giVKWMUlvVhsxEAtcKuAhMH7cbmQwCeiuLyPiYO2k1lyhhhSwmAZ0vUUGHs6O1EjRUAnojNhYwdu5XK1DEAXPZEDIDLXOYyl7nMZS5zmctc5jKX7W8GwGUuc5nLXOYyl7nMZS5zmcv2NwPgMpe5zGUuc5nLXOYyl7nMZfubAXCZy1zmMpe5zGUuc5nLXOay/c0AuMxlLnOZy1zmMpe5zGUuc9n+ZgBc5jKXucxlLnOZy1zmMpe5bH8zAC5zmctc5jKXucxlLnOZy1y2vxkAl7nMZS5zmctc5jKXucxlLtvfDIDLXOYyl7nMZS5zmctc5jKX7W8GwGUuc5nLXOYyl7nMZS5zmcv2NwPgMpe5zGUuc5nLXOYyl7nMZfubAXCZy1zmMpe5zGUuc5nLXOay/c0AuMxlLnOZy1zmMpe5zGUuc9n+ZgBc5jKXucxlLnOZy1zmMpe5bH8zAC5zmctc5jKXucxlLnOZy1y2vxkAl7nMZS5zmctc5jKXucxlLtvfDIDLXOYyl7nMZS5zTXmkzG1fuw2XucxlLnu2ADxdBsBlLnOZy1zmMpe55rELHsNlLnOZy55Nm6/fDMDTYQBc5jKXucxlLnOZy1zmMpe5bH8zAC5zmctc5jKXucwFqhDGgstc5jKX/bsBPBUGwGUuc5nLXOYyl7mgGoHLXOYyl/0nhDEAPFkGwGUuc5nLXOYyl7nMZS5zmcv2NwPgMpe5zGUuc5nLXOYyl7nMZfubAXCZy1zmMpe5zGUuc5nLXOay/c0AuMxlLnOZy1zmMpe5zGUuc9n+ZgBc5jKXucxlLnOZy1zmMpe5bH8zAC5zmctc5jKXucxlLnOZy1y2vxkAl7nMZS5zmctc5jKXucxlLtvfDIDLXOYyl7nMZS5zmctc5jKX7W8GwGUuc5nLXOYyl7nMZS5zmcv2NwPgMpe5zGUuc5nLXOYyl7nMZfvb/wEvlJ1i8I+MWQAAAABJRU5ErkJggg==;" vertex="1" parent="1">
          <mxGeometry width="789" height="413" as="geometry" />
        </mxCell>
      </root>
    </mxGraphModel>
  </diagram>
</mxfile>
